<svg xmlns="http://www.w3.org/2000/svg" viewBox="0 0 750 500"><g id="freepik--background-simple--inject-2"><path d="M655.21,173.47l-1.34-2.21c-11.34-18.68-31.83-29.94-53.44-28.57a56.31,56.31,0,0,0-8.27,1.13c-19.65,4.21-36.74,19.06-43.83,38.09-4.16,11.19-5.33,24.07-13.23,33-10.3,11.56-27.77,11.93-43.13,11.45s-32.84-.07-43.09,11.53c-6.41,7.27-8.45,17.6-7.93,27.34,1.37,25.77,19.32,48.81,42.16,60.26s49.72,12.48,74.72,7.44c35-7.06,68.3-26.44,88.32-56.37S671.22,205.78,655.21,173.47Z" style="fill:#ebebeb"/><circle cx="456.65" cy="149.79" r="41.63" style="fill:#ebebeb"/></g><g id="freepik--Floor--inject-2"><path d="M733.76,474.17c0,.14-158.45.26-353.85.26S26,474.31,26,474.17s158.41-.26,353.88-.26S733.76,474,733.76,474.17Z" style="fill:#263238"/></g><g id="freepik--Shelves--inject-2"><rect width="246.76" height="397.89" x="151.42" y="68.74" style="fill:#e0e0e0"/><polygon points="203.75 474.17 151.22 474.17 150.35 56.98 202.88 56.98 203.75 474.17" style="fill:#263238"/><rect width="25.16" height="43.36" x="303.65" y="239.52" transform="translate(632.45 522.41) rotate(180)" style="fill:#808ef5"/><rect width="19.87" height="54.13" x="233.46" y="229.45" transform="translate(486.78 513.02) rotate(180)" style="fill:#455a64"/><path d="M233.23,233.36c0-.17,4.54-.31,10.14-.31s10.15.14,10.15.31a87.55,87.55,0,0,1-10.15.3A87.44,87.44,0,0,1,233.23,233.36Z" style="fill:#fafafa"/><path d="M234.33,235.92a78.19,78.19,0,0,1,9.59-.3,78.43,78.43,0,0,1,9.6.3c0,.17-4.3.3-9.6.3S234.33,236.09,234.33,235.92Z" style="fill:#fafafa"/><path d="M242.82,272.9c-.16,0-.3-7.17-.3-16s.14-16,.3-16,.3,7.17.3,16S243,272.9,242.82,272.9Z" style="fill:#fafafa"/><path d="M233.46,277.86c0-.17,4.35-.31,9.72-.31s9.73.14,9.73.31a80.59,80.59,0,0,1-9.73.3A80.34,80.34,0,0,1,233.46,277.86Z" style="fill:#fafafa"/><path d="M233.46,280.18c0-.17,4.46-.3,10-.3s10,.13,10,.3-4.47.3-10,.3S233.46,280.35,233.46,280.18Z" style="fill:#fafafa"/><rect width="15.96" height="59.99" x="253.31" y="223.59" transform="translate(522.58 507.17) rotate(180)" style="fill:#808ef5"/><path d="M253.21,251.14a16.07,16.07,0,0,1,2.47,1.71l5.76,4.37,5.75,4.38a15.19,15.19,0,0,1,2.31,1.92,13.79,13.79,0,0,1-2.56-1.57c-1.53-1.05-3.61-2.54-5.87-4.25s-4.24-3.32-5.66-4.52A13.88,13.88,0,0,1,253.21,251.14Z" style="fill:#fafafa"/><path d="M253.14,241.75c.11-.13,3.77,2.83,8.17,6.6s7.88,6.93,7.77,7.06a92.78,92.78,0,0,1-8.16-6.6C256.51,245,253,241.88,253.14,241.75Z" style="fill:#fafafa"/><rect width="7.63" height="57.15" x="183.94" y="226.48" transform="translate(375.52 510.1) rotate(180)" style="fill:#808ef5"/><path d="M184.26,234.26c0,.2,1.6.36,3.58.36s3.57-.16,3.57-.36-1.6-.36-3.57-.36S184.26,234.06,184.26,234.26Z" style="fill:#fafafa"/><path d="M184.11,233c0,.19,1.6.36,3.57.36s3.58-.17,3.58-.36-1.6-.36-3.58-.36S184.11,232.82,184.11,233Z" style="fill:#fafafa"/><path d="M184.26,279.2c0,.2,1.6.36,3.58.36s3.57-.16,3.57-.36-1.6-.36-3.57-.36S184.26,279,184.26,279.2Z" style="fill:#fafafa"/><path d="M184.11,278c0,.2,1.6.36,3.57.36s3.58-.16,3.58-.36-1.6-.36-3.58-.36S184.11,277.76,184.11,278Z" style="fill:#fafafa"/><path d="M188,270.49c.2,0,.36-6.54.36-14.61s-.16-14.62-.36-14.62-.36,6.54-.36,14.62S187.79,270.49,188,270.49Z" style="fill:#fafafa"/><rect width="15.27" height="57.15" x="218.16" y="226.11" transform="translate(451.58 509.36) rotate(180)" style="fill:#263238"/><path d="M229.13,284a1.73,1.73,0,0,0,.18-.31c.11-.21.25-.53.43-1a16.28,16.28,0,0,0,1.11-3.87,10.1,10.1,0,0,0-.89-6.29,8.31,8.31,0,0,0-2.71-3,6.27,6.27,0,0,0-4.4-1,4.51,4.51,0,0,0-2.27,1,3,3,0,0,0-1.09,2.41,3.45,3.45,0,0,0,1.3,2.42,4.76,4.76,0,0,0,2.61,1.11,7,7,0,0,0,5.41-2,8.74,8.74,0,0,0,2.68-5.5,14.52,14.52,0,0,0-.79-6.37,11.78,11.78,0,0,0-3.74-5.57,6.19,6.19,0,0,0-3.3-1.3,4.28,4.28,0,0,0-3.43,1.22,2.78,2.78,0,0,0-.78,1.79,3.18,3.18,0,0,0,.52,1.86,5,5,0,0,0,3.08,2.11,7.2,7.2,0,0,0,6.73-2.26,11.27,11.27,0,0,0,2.62-6.43,15.76,15.76,0,0,0-.66-6.67,9.2,9.2,0,0,0-3.94-5.07,6.76,6.76,0,0,0-6.07-.64,3.19,3.19,0,0,0-2,2.33,3.7,3.7,0,0,0,.69,2.88,4.78,4.78,0,0,0,5.15,1.36,8.91,8.91,0,0,0,4.06-2.88,13,13,0,0,0,3-7.84,12.65,12.65,0,0,0-3.81-9.44,9.67,9.67,0,0,0-.79-.69,1.34,1.34,0,0,0-.3-.2A14.74,14.74,0,0,1,231,230.5a12.46,12.46,0,0,1,1.26,6.07,12.66,12.66,0,0,1-3,7.52,8.4,8.4,0,0,1-3.83,2.68,4.21,4.21,0,0,1-4.51-1.19,3.1,3.1,0,0,1-.57-2.4,2.56,2.56,0,0,1,1.62-1.87,6.15,6.15,0,0,1,5.48.62,8.59,8.59,0,0,1,3.63,4.73,15.28,15.28,0,0,1,.61,6.37,10.52,10.52,0,0,1-2.45,6,6.5,6.5,0,0,1-6,2,4.27,4.27,0,0,1-2.64-1.79,2.18,2.18,0,0,1,.17-2.78,3.56,3.56,0,0,1,2.86-1,5.41,5.41,0,0,1,2.92,1.15,11.06,11.06,0,0,1,3.52,5.23,13.91,13.91,0,0,1,.78,6.08,8,8,0,0,1-2.45,5.1,6.31,6.31,0,0,1-4.92,1.84c-1.68-.14-3.32-1.42-3.42-3a2.45,2.45,0,0,1,.89-2,4.12,4.12,0,0,1,2-.95A5.79,5.79,0,0,1,227,270a8,8,0,0,1,2.61,2.8,9.93,9.93,0,0,1,1,6.05,18.11,18.11,0,0,1-1,3.86A12,12,0,0,0,229.13,284Z" style="fill:#fafafa"/><rect width="26.49" height="52.04" x="191.46" y="231.24" transform="translate(409.4 514.51) rotate(180)" style="fill:#808ef5"/><g style="opacity:.2"><rect width="26.49" height="52.04" x="191.46" y="231.24" transform="translate(409.4 514.51) rotate(180)"/></g><path d="M192.37,239.88c0,.2,5.74.36,12.82.36s12.82-.16,12.82-.36-5.74-.36-12.82-.36S192.37,239.69,192.37,239.88Z" style="fill:#e0e0e0"/><path d="M192,243.83c0,.2,5.66.36,12.65.36s12.66-.16,12.66-.36-5.67-.36-12.66-.36S192,243.63,192,243.83Z" style="fill:#e0e0e0"/><path d="M191.19,277.4c0,.19,6,.36,13.32.36s13.33-.17,13.33-.36-6-.36-13.33-.36S191.19,277.2,191.19,277.4Z" style="fill:#e0e0e0"/><path d="M191.54,272.76c0,.2,5.82.36,13,.36s13-.16,13-.36-5.82-.36-13-.36S191.54,272.56,191.54,272.76Z" style="fill:#e0e0e0"/><rect width="15.27" height="57.15" x="269.26" y="225.74" transform="translate(553.79 508.63) rotate(180)" style="fill:#455a64"/><path d="M280.23,283.62s.08-.1.18-.31.26-.53.44-.95a16.88,16.88,0,0,0,1.11-3.88,10.07,10.07,0,0,0-.9-6.28,8.31,8.31,0,0,0-2.7-3,6.28,6.28,0,0,0-4.4-1,4.68,4.68,0,0,0-2.27,1.05,3,3,0,0,0-1.1,2.41,3.43,3.43,0,0,0,1.31,2.42,4.7,4.7,0,0,0,2.6,1.11,6.91,6.91,0,0,0,5.41-2,8.72,8.72,0,0,0,2.69-5.49,14.71,14.71,0,0,0-.79-6.38,11.8,11.8,0,0,0-3.75-5.57,6.12,6.12,0,0,0-3.29-1.3,4.3,4.3,0,0,0-3.43,1.22,2.78,2.78,0,0,0-.79,1.79,3.31,3.31,0,0,0,.53,1.87,5,5,0,0,0,3.08,2.1,7.18,7.18,0,0,0,6.72-2.25,11.19,11.19,0,0,0,2.62-6.44,15.92,15.92,0,0,0-.65-6.67,9.24,9.24,0,0,0-4-5.07,6.74,6.74,0,0,0-6.06-.64,3.24,3.24,0,0,0-2,2.34,3.68,3.68,0,0,0,.7,2.87,4.75,4.75,0,0,0,5.14,1.37,8.87,8.87,0,0,0,4.06-2.89,13,13,0,0,0,3-7.83,12.46,12.46,0,0,0-1.41-6.21,12.3,12.3,0,0,0-2.4-3.24,9.43,9.43,0,0,0-.79-.68c-.19-.15-.29-.21-.3-.2a14.38,14.38,0,0,1,3.24,4.24,12.4,12.4,0,0,1,1.26,6.07,12.54,12.54,0,0,1-3,7.52,8.28,8.28,0,0,1-3.83,2.68,4.19,4.19,0,0,1-4.51-1.19,3,3,0,0,1-.56-2.4,2.54,2.54,0,0,1,1.62-1.87,6.13,6.13,0,0,1,5.47.63,8.57,8.57,0,0,1,3.64,4.73,15.09,15.09,0,0,1,.6,6.37,10.57,10.57,0,0,1-2.45,6,6.48,6.48,0,0,1-6,2,4.23,4.23,0,0,1-2.63-1.78,2.19,2.19,0,0,1,.17-2.79,3.58,3.58,0,0,1,2.86-1,5.45,5.45,0,0,1,2.92,1.16,11.18,11.18,0,0,1,3.52,5.22,14.06,14.06,0,0,1,.78,6.08,8.07,8.07,0,0,1-2.46,5.11,6.34,6.34,0,0,1-4.92,1.84,3.66,3.66,0,0,1-3.42-3,2.46,2.46,0,0,1,.9-2,4.13,4.13,0,0,1,2-.95,5.87,5.87,0,0,1,4.07.92,8,8,0,0,1,2.6,2.8,9.89,9.89,0,0,1,1,6.06,18.17,18.17,0,0,1-1,3.86C280.4,283.17,280.21,283.61,280.23,283.62Z" style="fill:#fafafa"/><rect width="21.22" height="60.03" x="162.73" y="222.86" transform="translate(346.67 505.75) rotate(180)" style="fill:#808ef5"/><g style="opacity:.30000000000000004"><rect width="21.22" height="60.03" x="162.73" y="222.86" transform="translate(346.67 505.75) rotate(180)" style="fill:#fff"/></g><rect width="19.84" height="53.44" x="284.53" y="229.45" transform="translate(588.9 512.33) rotate(180)" style="fill:#263238"/><path d="M304.87,256.1a16.79,16.79,0,0,0,3.16,2.24,11,11,0,0,0,4,1.11,10.28,10.28,0,0,0,5-.86c1.68-.72,3.21-1.64,4.77-2.17a7.44,7.44,0,0,1,4.32-.4,4.6,4.6,0,0,1,2.51,1.52,1.89,1.89,0,0,1,.49.95c-.05,0-.2-.32-.67-.79a4.64,4.64,0,0,0-2.42-1.26,7.32,7.32,0,0,0-4,.5c-1.48.54-3,1.46-4.72,2.2A10.47,10.47,0,0,1,312,260a10.74,10.74,0,0,1-4.14-1.28,9.16,9.16,0,0,1-2.31-1.77A2.81,2.81,0,0,1,304.87,256.1Z" style="fill:#fafafa"/><path d="M304.42,261.39a16.79,16.79,0,0,0,3.16,2.24,11.06,11.06,0,0,0,4,1.11,10.28,10.28,0,0,0,4.95-.86c1.68-.72,3.21-1.64,4.77-2.18a7.52,7.52,0,0,1,4.32-.39,4.56,4.56,0,0,1,2.51,1.52,1.79,1.79,0,0,1,.49.95c-.05,0-.2-.33-.66-.8a4.79,4.79,0,0,0-2.43-1.25,7.33,7.33,0,0,0-4,.5c-1.48.54-3,1.46-4.72,2.2a10.56,10.56,0,0,1-5.24.86,10.92,10.92,0,0,1-4.14-1.28,9.35,9.35,0,0,1-2.31-1.77A3.23,3.23,0,0,1,304.42,261.39Z" style="fill:#fafafa"/><path d="M304.75,244.27c0-.17,5.47-.3,12.2-.3s12.21.13,12.21.3-5.47.3-12.21.3S304.75,244.44,304.75,244.27Z" style="fill:#fafafa"/><path d="M295.76,238.06a2.79,2.79,0,0,0-1.72-.15,2.13,2.13,0,0,0-1.35,1.11,1.79,1.79,0,0,0,.51,1.94,1.76,1.76,0,0,0,2,.43,2.09,2.09,0,0,0,1.06-1.38,2.94,2.94,0,0,0-.21-1.72s.19.07.38.37a2.24,2.24,0,0,1,.25,1.43,2.44,2.44,0,0,1-1.24,1.8,2.43,2.43,0,0,1-3.21-3.09,2.45,2.45,0,0,1,1.75-1.3,2.15,2.15,0,0,1,1.44.19C295.68,237.86,295.78,238,295.76,238.06Z" style="fill:#fafafa"/><path d="M294.48,277.54c-.17,0-.3-7.49-.3-16.73s.13-16.73.3-16.73.3,7.49.3,16.73S294.65,277.54,294.48,277.54Z" style="fill:#fafafa"/><path d="M336.61,57,151.42,56H134.68V474.17h16.74V444.4H336.61l0,29.77h16.74l0-29.77V57Zm0,375.66H151.42V369.07H336.61Zm0-75.33H151.42V293.73H336.61Zm0-75.34H151.42V218.4H336.61Zm0-75.33H151.42V143.07H336.61Zm0-75.33H151.42V68.74H336.61Z" style="fill:#455a64"/><rect width="52.53" height="417.18" x="353.09" y="56.98" style="fill:#263238"/><rect width="50.68" height="14.56" x="225.46" y="116.57" style="fill:#455a64"/><path d="M230.24,130.14c-.17,0-.3-3-.3-6.68s.13-6.67.3-6.67a38,38,0,0,1,.3,6.67A38.09,38.09,0,0,1,230.24,130.14Z" style="fill:#263238"/><path d="M232.46,130.14c-.17,0-.3-3-.3-6.68s.13-6.67.3-6.67.3,3,.3,6.67S232.63,130.14,232.46,130.14Z" style="fill:#263238"/><path d="M268.27,130.14c-.17,0-.31-3-.31-6.68s.14-6.67.31-6.67a38,38,0,0,1,.3,6.67A38.09,38.09,0,0,1,268.27,130.14Z" style="fill:#263238"/><path d="M270.26,130.14a38.09,38.09,0,0,1-.3-6.68,38,38,0,0,1,.3-6.67c.17,0,.31,3,.31,6.67S270.43,130.14,270.26,130.14Z" style="fill:#263238"/><path d="M264.82,123.59c0,.17-6.57.3-14.67.3s-14.68-.13-14.68-.3,6.57-.3,14.68-.3S264.82,123.43,264.82,123.59Z" style="fill:#263238"/><rect width="50.68" height="14.56" x="229.6" y="102.03" style="fill:#808ef5"/><path d="M234.37,115.59a38.09,38.09,0,0,1-.3-6.68,38,38,0,0,1,.3-6.67c.17,0,.3,3,.3,6.67S234.54,115.59,234.37,115.59Z" style="fill:#263238"/><path d="M236.6,115.59c-.17,0-.31-3-.31-6.68s.14-6.67.31-6.67a38,38,0,0,1,.3,6.67A38.09,38.09,0,0,1,236.6,115.59Z" style="fill:#263238"/><path d="M272.4,115.59c-.17,0-.3-3-.3-6.68s.13-6.67.3-6.67.3,3,.3,6.67S272.57,115.59,272.4,115.59Z" style="fill:#263238"/><path d="M274.4,115.59c-.17,0-.3-3-.3-6.68s.13-6.67.3-6.67.3,3,.3,6.67S274.57,115.59,274.4,115.59Z" style="fill:#263238"/><path d="M269,109c0,.17-6.57.31-14.68.31s-14.67-.14-14.67-.31,6.57-.3,14.67-.3S269,108.88,269,109Z" style="fill:#263238"/><rect width="7.63" height="57.15" x="214.42" y="74.35" style="fill:#808ef5"/><path d="M221.74,82.14c0,.2-1.61.36-3.58.36s-3.58-.16-3.58-.36,1.6-.36,3.58-.36S221.74,81.94,221.74,82.14Z" style="fill:#fafafa"/><path d="M221.89,80.89c0,.2-1.6.36-3.58.36s-3.57-.16-3.57-.36,1.6-.36,3.57-.36S221.89,80.7,221.89,80.89Z" style="fill:#fafafa"/><path d="M221.74,127.08c0,.2-1.61.36-3.58.36s-3.58-.16-3.58-.36,1.6-.36,3.58-.36S221.74,126.88,221.74,127.08Z" style="fill:#fafafa"/><path d="M221.89,125.84c0,.19-1.6.36-3.58.36s-3.57-.17-3.57-.36,1.6-.36,3.57-.36S221.89,125.64,221.89,125.84Z" style="fill:#fafafa"/><path d="M218,118.37c-.19,0-.36-6.54-.36-14.62s.17-14.61.36-14.61.36,6.54.36,14.61S218.2,118.37,218,118.37Z" style="fill:#fafafa"/><rect width="15.27" height="57.15" x="172.57" y="73.99" style="fill:#808ef5"/><path d="M176.87,131.86s-.07-.09-.18-.31-.26-.52-.44-1a17,17,0,0,1-1.1-3.87,10,10,0,0,1,.89-6.29,8.37,8.37,0,0,1,2.7-3,6.28,6.28,0,0,1,4.4-1,4.58,4.58,0,0,1,2.28,1,3,3,0,0,1,1.09,2.41,3.44,3.44,0,0,1-1.31,2.42,4.69,4.69,0,0,1-2.6,1.1,6.88,6.88,0,0,1-5.41-2,8.66,8.66,0,0,1-2.68-5.49,14.37,14.37,0,0,1,.79-6.37A11.68,11.68,0,0,1,179,104a6.19,6.19,0,0,1,3.3-1.3,4.26,4.26,0,0,1,3.43,1.22,2.77,2.77,0,0,1,.78,1.78,3.27,3.27,0,0,1-.53,1.87,4.91,4.91,0,0,1-3.08,2.1,7.18,7.18,0,0,1-6.72-2.25A11.17,11.17,0,0,1,173.6,101a15.74,15.74,0,0,1,.66-6.67,9.21,9.21,0,0,1,3.94-5.08,6.79,6.79,0,0,1,6.07-.63,3.19,3.19,0,0,1,2,2.33,3.68,3.68,0,0,1-.7,2.88,4.77,4.77,0,0,1-5.14,1.36,8.91,8.91,0,0,1-4.06-2.88,13,13,0,0,1-3-7.84,12.59,12.59,0,0,1,1.41-6.21,12.39,12.39,0,0,1,2.4-3.23,9.67,9.67,0,0,1,.79-.69,1.34,1.34,0,0,1,.3-.2A14.36,14.36,0,0,0,175,78.38a12.33,12.33,0,0,0-1.26,6.06,12.56,12.56,0,0,0,3,7.53,8.43,8.43,0,0,0,3.83,2.68,4.21,4.21,0,0,0,4.51-1.19,3.06,3.06,0,0,0,.56-2.4A2.54,2.54,0,0,0,184,89.19a6.13,6.13,0,0,0-5.47.62,8.51,8.51,0,0,0-3.63,4.73,15.1,15.1,0,0,0-.61,6.37,10.57,10.57,0,0,0,2.45,6,6.46,6.46,0,0,0,6,2,4.19,4.19,0,0,0,2.63-1.78,2.17,2.17,0,0,0-.16-2.78,3.58,3.58,0,0,0-2.87-1,5.36,5.36,0,0,0-2.92,1.15,11.07,11.07,0,0,0-3.51,5.23,14,14,0,0,0-.79,6.07,8,8,0,0,0,2.46,5.11,6.34,6.34,0,0,0,4.92,1.84,3.66,3.66,0,0,0,3.42-3,2.49,2.49,0,0,0-.9-2,4,4,0,0,0-2-.94,5.82,5.82,0,0,0-4.07.92,7.92,7.92,0,0,0-2.6,2.79,9.91,9.91,0,0,0-1,6.06,18.17,18.17,0,0,0,1,3.86C176.7,131.41,176.89,131.85,176.87,131.86Z" style="fill:#fafafa"/><rect width="26.49" height="52.04" x="188.05" y="79.11" style="fill:#808ef5"/><g style="opacity:.2"><rect width="26.49" height="52.04" x="188.05" y="79.11"/></g><path d="M213.63,87.76c0,.2-5.74.36-12.82.36S188,88,188,87.76s5.74-.36,12.82-.36S213.63,87.56,213.63,87.76Z" style="fill:#e0e0e0"/><path d="M214,91.71c0,.19-5.67.36-12.66.36s-12.65-.17-12.65-.36,5.66-.36,12.65-.36S214,91.51,214,91.71Z" style="fill:#e0e0e0"/><path d="M214.81,125.27c0,.2-6,.36-13.33.36s-13.33-.16-13.33-.36,6-.36,13.33-.36S214.81,125.08,214.81,125.27Z" style="fill:#e0e0e0"/><path d="M214.45,120.64c0,.19-5.81.36-13,.36s-13-.17-13-.36,5.82-.36,13-.36S214.45,120.44,214.45,120.64Z" style="fill:#e0e0e0"/><rect width="62.76" height="4.88" x="226.67" y="97.15" style="fill:#263238"/><path d="M231.32,101.71c-.17,0-.3-1-.3-2.16s.13-2.15.3-2.15.3,1,.3,2.15S231.49,101.71,231.32,101.71Z" style="fill:#fff"/><path d="M285.5,101.71c-.17,0-.3-1-.3-2.16s.13-2.15.3-2.15.3,1,.3,2.15S285.67,101.71,285.5,101.71Z" style="fill:#fff"/><path d="M283,99.55c0,.17-10.91.31-24.36.31s-24.37-.14-24.37-.31,10.91-.3,24.37-.3S283,99.39,283,99.55Z" style="fill:#fff"/><rect width="7.98" height="47.51" x="308.62" y="83.78" style="fill:#808ef5"/><g style="opacity:.30000000000000004"><rect width="7.98" height="47.51" x="308.62" y="83.78"/></g><rect width="19.87" height="54.13" x="316.74" y="77.15" style="fill:#263238"/><path d="M336.84,81.06c0,.17-4.54.3-10.14.3s-10.15-.13-10.15-.3a87.55,87.55,0,0,1,10.15-.3A87.44,87.44,0,0,1,336.84,81.06Z" style="fill:#fafafa"/><path d="M335.74,83.63c0,.17-4.3.3-9.6.3s-9.59-.13-9.59-.3,4.29-.3,9.59-.3S335.74,83.46,335.74,83.63Z" style="fill:#fafafa"/><path d="M327.24,120.61c-.16,0-.3-7.17-.3-16s.14-16,.3-16,.31,7.17.31,16S327.41,120.61,327.24,120.61Z" style="fill:#fafafa"/><path d="M336.61,125.56c0,.17-4.35.3-9.72.3s-9.73-.13-9.73-.3a80.45,80.45,0,0,1,9.73-.3A80.34,80.34,0,0,1,336.61,125.56Z" style="fill:#fafafa"/><path d="M336.61,127.89a84.49,84.49,0,0,1-10,.3,84.49,84.49,0,0,1-10-.3c0-.17,4.46-.31,10-.31S336.61,127.72,336.61,127.89Z" style="fill:#fafafa"/><rect width="15.96" height="54.13" x="292.79" y="77.15" style="fill:#808ef5"/><path d="M308.85,102a12.75,12.75,0,0,1-2.22,1.87c-1.42,1.09-3.42,2.55-5.67,4.09s-4.33,2.89-5.86,3.82a13,13,0,0,1-2.54,1.4,14.66,14.66,0,0,1,2.31-1.76l5.75-4,5.76-3.94A15.06,15.06,0,0,1,308.85,102Z" style="fill:#fafafa"/><path d="M308.92,93.54a85.25,85.25,0,0,1-7.79,6.4c-4.4,3.41-8.05,6.06-8.16,5.93s3.39-3,7.79-6.41A84.66,84.66,0,0,1,308.92,93.54Z" style="fill:#fafafa"/><rect width="50.68" height="14.56" x="226.5" y="343.18" transform="translate(503.68 700.91) rotate(180)" style="fill:#455a64"/><path d="M272.41,356.74c-.17,0-.31-3-.31-6.67s.14-6.68.31-6.68a74.41,74.41,0,0,1,0,13.35Z" style="fill:#263238"/><path d="M270.18,356.74a74.41,74.41,0,0,1,0-13.35c.17,0,.31,3,.31,6.68S270.35,356.74,270.18,356.74Z" style="fill:#263238"/><path d="M234.38,356.74c-.17,0-.3-3-.3-6.67s.13-6.68.3-6.68a74.41,74.41,0,0,1,0,13.35Z" style="fill:#263238"/><path d="M232.38,356.74c-.17,0-.3-3-.3-6.67s.13-6.68.3-6.68.3,3,.3,6.68S232.55,356.74,232.38,356.74Z" style="fill:#263238"/><path d="M237.82,350.2c0-.17,6.57-.31,14.67-.31s14.68.14,14.68.31-6.57.3-14.68.3S237.82,350.36,237.82,350.2Z" style="fill:#263238"/><rect width="50.68" height="14.56" x="223.22" y="329.96" transform="translate(497.13 674.47) rotate(180)" style="fill:#808ef5"/><path d="M269.13,343.52c-.17,0-.3-3-.3-6.67s.13-6.68.3-6.68.3,3,.3,6.68S269.3,343.52,269.13,343.52Z" style="fill:#263238"/><path d="M266.91,343.52c-.17,0-.3-3-.3-6.67s.13-6.68.3-6.68a74.41,74.41,0,0,1,0,13.35Z" style="fill:#263238"/><path d="M231.1,343.52c-.17,0-.3-3-.3-6.67s.13-6.68.3-6.68.3,3,.3,6.68S231.27,343.52,231.1,343.52Z" style="fill:#263238"/><path d="M229.1,343.52a74.41,74.41,0,0,1,0-13.35c.17,0,.3,3,.3,6.68S229.27,343.52,229.1,343.52Z" style="fill:#263238"/><path d="M234.54,337c0-.17,6.57-.31,14.68-.31s14.67.14,14.67.31-6.57.3-14.67.3S234.54,337.14,234.54,337Z" style="fill:#263238"/><rect width="7.63" height="57.15" x="281.45" y="301.07" transform="translate(570.53 659.29) rotate(180)" style="fill:#808ef5"/><path d="M281.77,308.86c0,.19,1.6.36,3.57.36s3.58-.17,3.58-.36-1.6-.36-3.58-.36S281.77,308.66,281.77,308.86Z" style="fill:#fafafa"/><path d="M281.61,307.61c0,.2,1.6.36,3.58.36s3.57-.16,3.57-.36-1.6-.36-3.57-.36S281.61,307.41,281.61,307.61Z" style="fill:#fafafa"/><path d="M281.77,353.8c0,.2,1.6.36,3.57.36s3.58-.16,3.58-.36-1.6-.36-3.58-.36S281.77,353.6,281.77,353.8Z" style="fill:#fafafa"/><path d="M281.61,352.55c0,.2,1.6.36,3.58.36s3.57-.16,3.57-.36-1.6-.36-3.57-.36S281.61,352.36,281.61,352.55Z" style="fill:#fafafa"/><path d="M285.5,345.09c.2,0,.36-6.55.36-14.62s-.16-14.62-.36-14.62-.36,6.55-.36,14.62S285.3,345.09,285.5,345.09Z" style="fill:#fafafa"/><rect width="15.27" height="57.15" x="315.66" y="300.7" transform="translate(646.59 658.55) rotate(180)" style="fill:#263238"/><path d="M326.63,358.58s.08-.1.18-.31.26-.53.44-.95a16.92,16.92,0,0,0,1.11-3.87,10.09,10.09,0,0,0-.9-6.29,8.31,8.31,0,0,0-2.7-3,6.34,6.34,0,0,0-4.4-1,4.68,4.68,0,0,0-2.27,1.05,3,3,0,0,0-1.1,2.41A3.45,3.45,0,0,0,318.3,349a4.69,4.69,0,0,0,2.6,1.1,6.91,6.91,0,0,0,5.41-2,8.72,8.72,0,0,0,2.69-5.49,14.73,14.73,0,0,0-.79-6.38,11.72,11.72,0,0,0-3.75-5.56,6,6,0,0,0-3.29-1.3,4.26,4.26,0,0,0-3.43,1.21,2.78,2.78,0,0,0-.79,1.79,3.27,3.27,0,0,0,.53,1.87,4.91,4.91,0,0,0,3.08,2.1,7.18,7.18,0,0,0,6.72-2.25,11.19,11.19,0,0,0,2.62-6.43,15.89,15.89,0,0,0-.65-6.67A9.23,9.23,0,0,0,325.3,316a6.74,6.74,0,0,0-6.06-.63,3.2,3.2,0,0,0-2,2.33,3.72,3.72,0,0,0,.7,2.88,4.77,4.77,0,0,0,5.14,1.36,8.93,8.93,0,0,0,4.06-2.88,13,13,0,0,0,3-7.84,12.49,12.49,0,0,0-1.41-6.21,12.3,12.3,0,0,0-2.4-3.24,9.43,9.43,0,0,0-.79-.68,1.34,1.34,0,0,0-.3-.2,14.16,14.16,0,0,1,3.24,4.25,12.33,12.33,0,0,1,1.26,6.06,12.59,12.59,0,0,1-3,7.53,8.45,8.45,0,0,1-3.82,2.68,4.24,4.24,0,0,1-4.52-1.19,3.11,3.11,0,0,1-.56-2.41,2.54,2.54,0,0,1,1.62-1.86,6.12,6.12,0,0,1,5.47.62,8.57,8.57,0,0,1,3.64,4.73,15.09,15.09,0,0,1,.6,6.37,10.56,10.56,0,0,1-2.44,6,6.5,6.5,0,0,1-6,2,4.23,4.23,0,0,1-2.63-1.78,2.19,2.19,0,0,1,.17-2.79,3.59,3.59,0,0,1,2.86-1,5.36,5.36,0,0,1,2.92,1.15,11.16,11.16,0,0,1,3.52,5.23,14,14,0,0,1,.78,6.07,8,8,0,0,1-2.46,5.11,6.31,6.31,0,0,1-4.91,1.84c-1.68-.14-3.32-1.42-3.42-3a2.44,2.44,0,0,1,.89-2,4,4,0,0,1,2-.94,5.82,5.82,0,0,1,4.07.92,7.92,7.92,0,0,1,2.6,2.79,9.91,9.91,0,0,1,1,6.06,18.17,18.17,0,0,1-1,3.86C326.8,358.13,326.61,358.57,326.63,358.58Z" style="fill:#fafafa"/><rect width="26.49" height="52.04" x="288.96" y="305.83" transform="translate(604.41 663.71) rotate(180)" style="fill:#808ef5"/><g style="opacity:.2"><rect width="26.49" height="52.04" x="288.96" y="305.83" transform="translate(604.41 663.71) rotate(180)"/></g><path d="M289.87,314.48c0,.2,5.74.36,12.82.36s12.82-.16,12.82-.36-5.74-.36-12.82-.36S289.87,314.28,289.87,314.48Z" style="fill:#e0e0e0"/><path d="M289.54,318.42c0,.2,5.67.36,12.66.36s12.66-.16,12.66-.36-5.67-.36-12.66-.36S289.54,318.23,289.54,318.42Z" style="fill:#e0e0e0"/><path d="M288.69,352c0,.2,6,.36,13.33.36s13.33-.16,13.33-.36-6-.36-13.33-.36S288.69,351.79,288.69,352Z" style="fill:#e0e0e0"/><path d="M289.05,347.35c0,.2,5.81.36,13,.36s13-.16,13-.36-5.81-.36-13-.36S289.05,347.16,289.05,347.35Z" style="fill:#e0e0e0"/><rect width="62.76" height="4.88" x="214.08" y="325.08" transform="translate(490.91 655.03) rotate(180)" style="fill:#263238"/><path d="M272.18,329.64c-.17,0-.3-1-.3-2.15s.13-2.16.3-2.16.3,1,.3,2.16S272.35,329.64,272.18,329.64Z" style="fill:#fff"/><path d="M218,329.64c-.16,0-.3-1-.3-2.15s.14-2.16.3-2.16.31,1,.31,2.16S218.17,329.64,218,329.64Z" style="fill:#fff"/><path d="M220.47,327.49c0-.17,10.91-.31,24.36-.31s24.37.14,24.37.31-10.91.3-24.37.3S220.47,327.65,220.47,327.49Z" style="fill:#fff"/><rect width="7.98" height="47.51" x="186.9" y="310.5" transform="translate(381.79 668.5) rotate(180)" style="fill:#808ef5"/><g style="opacity:.30000000000000004"><rect width="7.98" height="47.51" x="186.9" y="310.5" transform="translate(381.79 668.5) rotate(180)"/></g><rect width="19.87" height="54.13" x="166.89" y="303.87" transform="translate(353.65 661.87) rotate(180)" style="fill:#808ef5"/><path d="M166.66,307.78c0-.17,4.54-.3,10.15-.3s10.14.13,10.14.3-4.54.3-10.14.3S166.66,308,166.66,307.78Z" style="fill:#fafafa"/><path d="M167.76,310.35c0-.17,4.3-.3,9.6-.3s9.59.13,9.59.3a78.19,78.19,0,0,1-9.59.3A78.43,78.43,0,0,1,167.76,310.35Z" style="fill:#fafafa"/><path d="M176.26,347.33c-.17,0-.3-7.17-.3-16s.13-16,.3-16,.3,7.17.3,16S176.42,347.33,176.26,347.33Z" style="fill:#fafafa"/><path d="M166.89,352.28c0-.17,4.36-.3,9.73-.3s9.72.13,9.72.3-4.35.3-9.72.3S166.89,352.45,166.89,352.28Z" style="fill:#fafafa"/><path d="M166.89,354.6a84.49,84.49,0,0,1,10-.3,84.49,84.49,0,0,1,10,.3c0,.17-4.46.3-10,.3S166.89,354.77,166.89,354.6Z" style="fill:#fafafa"/><rect width="15.96" height="54.13" x="194.75" y="303.87" transform="translate(405.47 661.87) rotate(180)" style="fill:#808ef5"/><path d="M194.65,328.73a14.22,14.22,0,0,1,2.47,1.53l5.76,3.93,5.75,4a13.42,13.42,0,0,1,2.31,1.76,14.55,14.55,0,0,1-2.54-1.4c-1.53-.93-3.61-2.27-5.86-3.82s-4.25-3-5.67-4.09A13.87,13.87,0,0,1,194.65,328.73Z" style="fill:#fafafa"/><path d="M194.58,320.26c.11-.14,3.76,2.52,8.16,5.92a87.25,87.25,0,0,1,7.79,6.4c-.1.14-3.76-2.52-8.16-5.92A87.25,87.25,0,0,1,194.58,320.26Z" style="fill:#fafafa"/><path d="M195.75,204.44c0,.17-5.62.3-12.55.3s-12.55-.13-12.55-.3,5.62-.3,12.55-.3S195.75,204.27,195.75,204.44Z" style="fill:#fafafa"/><rect width="25.16" height="43.36" x="170.53" y="163.2" style="fill:#808ef5"/><rect width="19.87" height="54.13" x="246.02" y="153.12" style="fill:#455a64"/><path d="M266.11,157c0,.17-4.54.31-10.14.31s-10.15-.14-10.15-.31a87.55,87.55,0,0,1,10.15-.3A87.44,87.44,0,0,1,266.11,157Z" style="fill:#fafafa"/><path d="M265,159.6c0,.17-4.29.3-9.59.3s-9.6-.13-9.6-.3,4.3-.3,9.6-.3S265,159.43,265,159.6Z" style="fill:#fafafa"/><path d="M256.52,196.58c-.17,0-.3-7.17-.3-16s.13-16,.3-16,.3,7.17.3,16S256.68,196.58,256.52,196.58Z" style="fill:#fafafa"/><path d="M265.88,201.53c0,.17-4.35.31-9.72.31s-9.73-.14-9.73-.31a80.59,80.59,0,0,1,9.73-.3A80.34,80.34,0,0,1,265.88,201.53Z" style="fill:#fafafa"/><path d="M265.88,203.86a84.49,84.49,0,0,1-10,.3,84.63,84.63,0,0,1-10-.3c0-.17,4.47-.31,10-.31S265.88,203.69,265.88,203.86Z" style="fill:#fafafa"/><rect width="15.96" height="59.99" x="230.07" y="146.28" style="fill:#808ef5"/><path d="M246.13,174.82a14.3,14.3,0,0,1-2.21,2c-1.41,1.2-3.4,2.81-5.66,4.52s-4.33,3.2-5.86,4.25a13.79,13.79,0,0,1-2.56,1.57,15.19,15.19,0,0,1,2.31-1.92l5.75-4.38,5.76-4.37A15.21,15.21,0,0,1,246.13,174.82Z" style="fill:#fafafa"/><path d="M246.2,165.43a91.22,91.22,0,0,1-7.78,7.06,92.78,92.78,0,0,1-8.16,6.6c-.11-.13,3.37-3.29,7.77-7.06S246.09,165.3,246.2,165.43Z" style="fill:#fafafa"/><rect width="7.63" height="57.15" x="307.76" y="150.15" style="fill:#808ef5"/><path d="M315.08,157.94c0,.2-1.6.36-3.58.36s-3.57-.16-3.57-.36,1.6-.36,3.57-.36S315.08,157.74,315.08,157.94Z" style="fill:#fafafa"/><path d="M315.23,156.69c0,.2-1.6.36-3.57.36s-3.58-.16-3.58-.36,1.6-.36,3.58-.36S315.23,156.5,315.23,156.69Z" style="fill:#fafafa"/><path d="M315.08,202.88c0,.2-1.6.36-3.58.36s-3.57-.16-3.57-.36,1.6-.36,3.57-.36S315.08,202.68,315.08,202.88Z" style="fill:#fafafa"/><path d="M315.23,201.64c0,.19-1.6.36-3.57.36s-3.58-.17-3.58-.36,1.6-.36,3.58-.36S315.23,201.44,315.23,201.64Z" style="fill:#fafafa"/><path d="M311.35,194.17c-.2,0-.36-6.54-.36-14.62s.16-14.61.36-14.61.36,6.54.36,14.61S311.55,194.17,311.35,194.17Z" style="fill:#fafafa"/><rect width="15.27" height="57.15" x="265.92" y="149.79" style="fill:#263238"/><path d="M270.21,207.67a1.73,1.73,0,0,1-.18-.31c-.11-.21-.25-.53-.43-1a16.42,16.42,0,0,1-1.11-3.87,10.1,10.1,0,0,1,.89-6.29,8.31,8.31,0,0,1,2.71-3,6.27,6.27,0,0,1,4.4-1,4.51,4.51,0,0,1,2.27,1.05,3,3,0,0,1,1.09,2.41,3.47,3.47,0,0,1-1.3,2.42,4.75,4.75,0,0,1-2.61,1.1,6.89,6.89,0,0,1-5.41-2,8.64,8.64,0,0,1-2.68-5.49,14.52,14.52,0,0,1,.79-6.37,11.68,11.68,0,0,1,3.74-5.57,6.19,6.19,0,0,1,3.3-1.3,4.26,4.26,0,0,1,3.43,1.22,2.77,2.77,0,0,1,.78,1.78,3.19,3.19,0,0,1-.52,1.87,5,5,0,0,1-3.08,2.1,7.19,7.19,0,0,1-6.73-2.25,11.3,11.3,0,0,1-2.62-6.43,15.74,15.74,0,0,1,.66-6.67,9.26,9.26,0,0,1,3.94-5.08,6.79,6.79,0,0,1,6.07-.63,3.17,3.17,0,0,1,2,2.33,3.71,3.71,0,0,1-.69,2.88,4.78,4.78,0,0,1-5.15,1.36,8.91,8.91,0,0,1-4.06-2.88,13,13,0,0,1-3-7.84,12.6,12.6,0,0,1,3.81-9.44,9.67,9.67,0,0,1,.79-.69,1.34,1.34,0,0,1,.3-.2,14.36,14.36,0,0,0-3.24,4.25,12.45,12.45,0,0,0-1.26,6.06,12.62,12.62,0,0,0,3,7.53,8.43,8.43,0,0,0,3.83,2.68,4.21,4.21,0,0,0,4.51-1.19,3.1,3.1,0,0,0,.57-2.4,2.55,2.55,0,0,0-1.63-1.87,6.13,6.13,0,0,0-5.47.62,8.55,8.55,0,0,0-3.63,4.73,15.27,15.27,0,0,0-.61,6.37,10.55,10.55,0,0,0,2.45,6,6.47,6.47,0,0,0,6,2,4.24,4.24,0,0,0,2.64-1.78,2.18,2.18,0,0,0-.17-2.78,3.56,3.56,0,0,0-2.86-1,5.41,5.41,0,0,0-2.92,1.15,11,11,0,0,0-3.52,5.23,13.89,13.89,0,0,0-.78,6.07,8,8,0,0,0,2.45,5.11,6.35,6.35,0,0,0,4.92,1.84c1.68-.14,3.32-1.42,3.42-3a2.48,2.48,0,0,0-.89-2,4.1,4.1,0,0,0-2-.94,5.79,5.79,0,0,0-4.06.92,8,8,0,0,0-2.61,2.8,9.86,9.86,0,0,0-1,6.05,18.27,18.27,0,0,0,1,3.86A12,12,0,0,1,270.21,207.67Z" style="fill:#fafafa"/><rect width="26.49" height="52.04" x="281.39" y="154.91" style="fill:#455a64"/><path d="M307,163.56c0,.2-5.74.36-12.82.36s-12.82-.16-12.82-.36,5.74-.36,12.82-.36S307,163.36,307,163.56Z" style="fill:#e0e0e0"/><path d="M307.3,167.51c0,.2-5.66.36-12.65.36s-12.66-.16-12.66-.36,5.66-.36,12.66-.36S307.3,167.31,307.3,167.51Z" style="fill:#e0e0e0"/><path d="M308.15,201.07c0,.2-6,.36-13.33.36s-13.32-.16-13.32-.36,6-.36,13.32-.36S308.15,200.88,308.15,201.07Z" style="fill:#e0e0e0"/><path d="M307.8,196.44c0,.19-5.82.36-13,.36s-13-.17-13-.36,5.82-.36,13-.36S307.8,196.24,307.8,196.44Z" style="fill:#e0e0e0"/><rect width="15.27" height="57.15" x="214.81" y="149.42" style="fill:#455a64"/><path d="M219.11,207.3s-.08-.1-.18-.31-.26-.53-.44-1a17,17,0,0,1-1.11-3.88,10.07,10.07,0,0,1,.9-6.28,8.31,8.31,0,0,1,2.7-3,6.28,6.28,0,0,1,4.4-1,4.68,4.68,0,0,1,2.27,1.05,3,3,0,0,1,1.1,2.41,3.43,3.43,0,0,1-1.31,2.42,4.7,4.7,0,0,1-2.6,1.11,7,7,0,0,1-5.41-2,8.72,8.72,0,0,1-2.69-5.49,14.71,14.71,0,0,1,.79-6.38,11.8,11.8,0,0,1,3.75-5.57,6.12,6.12,0,0,1,3.29-1.3,4.3,4.3,0,0,1,3.43,1.22,2.74,2.74,0,0,1,.79,1.79,3.31,3.31,0,0,1-.53,1.87,5,5,0,0,1-3.08,2.1,7.18,7.18,0,0,1-6.72-2.25,11.19,11.19,0,0,1-2.62-6.44,15.92,15.92,0,0,1,.65-6.67,9.17,9.17,0,0,1,3.95-5.07,6.74,6.74,0,0,1,6.06-.64,3.22,3.22,0,0,1,2,2.33,3.71,3.71,0,0,1-.7,2.88,4.75,4.75,0,0,1-5.14,1.36,8.85,8.85,0,0,1-4.06-2.88,13,13,0,0,1-3-7.83,12.46,12.46,0,0,1,1.41-6.21,12.3,12.3,0,0,1,2.4-3.24,6.7,6.7,0,0,1,.79-.68,1.23,1.23,0,0,1,.3-.21,14.74,14.74,0,0,0-3.24,4.25,12.37,12.37,0,0,0-1.26,6.07,12.54,12.54,0,0,0,3,7.52,8.37,8.37,0,0,0,3.82,2.68,4.2,4.2,0,0,0,4.52-1.19,3.06,3.06,0,0,0,.56-2.4,2.54,2.54,0,0,0-1.62-1.87,6.13,6.13,0,0,0-5.47.63,8.58,8.58,0,0,0-3.64,4.72,15.15,15.15,0,0,0-.6,6.38,10.51,10.51,0,0,0,2.44,6,6.49,6.49,0,0,0,6,2,4.23,4.23,0,0,0,2.63-1.78,2.18,2.18,0,0,0-.17-2.79,3.56,3.56,0,0,0-2.86-1A5.52,5.52,0,0,0,221.7,180a11.21,11.21,0,0,0-3.52,5.23,14.06,14.06,0,0,0-.78,6.08,8.07,8.07,0,0,0,2.46,5.11,6.36,6.36,0,0,0,4.91,1.84c1.68-.14,3.32-1.42,3.43-3a2.46,2.46,0,0,0-.9-2,4.13,4.13,0,0,0-2-1,5.82,5.82,0,0,0-4.07.92,7.94,7.94,0,0,0-2.6,2.8,9.87,9.87,0,0,0-1,6.05,18,18,0,0,0,1,3.86C218.94,206.84,219.13,207.29,219.11,207.3Z" style="fill:#fafafa"/><rect width="21.22" height="60.03" x="315.4" y="146.54" style="fill:#263238"/><rect width="19.84" height="53.44" x="194.97" y="153.12" style="fill:#808ef5"/><path d="M194.47,179.78a3,3,0,0,1-.65.85,9.16,9.16,0,0,1-2.31,1.77,10.92,10.92,0,0,1-4.14,1.28,10.58,10.58,0,0,1-5.24-.86c-1.73-.74-3.24-1.66-4.72-2.2a7.32,7.32,0,0,0-4-.5,4.64,4.64,0,0,0-2.42,1.25c-.47.47-.62.83-.67.8a1.89,1.89,0,0,1,.49-.95,4.6,4.6,0,0,1,2.51-1.52,7.51,7.51,0,0,1,4.32.39c1.56.54,3.09,1.46,4.77,2.18a10.28,10.28,0,0,0,4.95.86,11.06,11.06,0,0,0,4-1.11A16.79,16.79,0,0,0,194.47,179.78Z" style="fill:#fafafa"/><path d="M194.92,185.06a3.05,3.05,0,0,1-.65.85,9.11,9.11,0,0,1-2.31,1.78,10.92,10.92,0,0,1-4.14,1.28,10.56,10.56,0,0,1-5.24-.86c-1.73-.74-3.24-1.66-4.72-2.2a7.35,7.35,0,0,0-4-.51,4.8,4.8,0,0,0-2.43,1.26c-.46.47-.61.83-.66.8a1.79,1.79,0,0,1,.49-1,4.56,4.56,0,0,1,2.51-1.52,7.52,7.52,0,0,1,4.32.39c1.55.54,3.09,1.46,4.76,2.17a10.47,10.47,0,0,0,5,.87,11.06,11.06,0,0,0,4-1.11A16.4,16.4,0,0,0,194.92,185.06Z" style="fill:#fafafa"/><path d="M194.59,168c0,.16-5.47.3-12.2.3s-12.21-.14-12.21-.3,5.46-.3,12.21-.3S194.59,167.78,194.59,168Z" style="fill:#fafafa"/><path d="M203.58,161.73s.08-.19.38-.36a2.15,2.15,0,0,1,1.44-.2,2.43,2.43,0,0,1,1.75,1.31,2.43,2.43,0,0,1-3.21,3.09,2.44,2.44,0,0,1-1.24-1.8,2.18,2.18,0,0,1,.25-1.43c.19-.3.36-.39.38-.37a2.94,2.94,0,0,0-.21,1.72,2.11,2.11,0,0,0,1.06,1.38,1.91,1.91,0,0,0,2.46-2.37,2.09,2.09,0,0,0-1.34-1.11A2.93,2.93,0,0,0,203.58,161.73Z" style="fill:#fafafa"/><path d="M204.86,201.22c-.17,0-.3-7.49-.3-16.73s.13-16.74.3-16.74.3,7.49.3,16.74S205,201.22,204.86,201.22Z" style="fill:#fafafa"/><rect width="25.16" height="43.36" x="170.53" y="388.35" style="fill:#808ef5"/><rect width="19.87" height="54.13" x="246.02" y="378.27" style="fill:#455a64"/><path d="M266.11,382.18c0,.17-4.54.3-10.14.3s-10.15-.13-10.15-.3a87.55,87.55,0,0,1,10.15-.3A87.44,87.44,0,0,1,266.11,382.18Z" style="fill:#fafafa"/><path d="M265,384.75c0,.17-4.29.3-9.59.3s-9.6-.13-9.6-.3,4.3-.3,9.6-.3S265,384.58,265,384.75Z" style="fill:#fafafa"/><path d="M256.52,421.73c-.17,0-.3-7.17-.3-16s.13-16,.3-16,.3,7.17.3,16S256.68,421.73,256.52,421.73Z" style="fill:#fafafa"/><path d="M265.88,426.68c0,.17-4.35.3-9.72.3s-9.73-.13-9.73-.3a80.59,80.59,0,0,1,9.73-.3A80.34,80.34,0,0,1,265.88,426.68Z" style="fill:#fafafa"/><path d="M265.88,429a84.49,84.49,0,0,1-10,.3,84.63,84.63,0,0,1-10-.3c0-.17,4.47-.31,10-.31S265.88,428.84,265.88,429Z" style="fill:#fafafa"/><rect width="15.96" height="59.99" x="230.07" y="372.42" style="fill:#808ef5"/><path d="M246.13,400a14.3,14.3,0,0,1-2.21,2c-1.41,1.2-3.4,2.81-5.66,4.52s-4.33,3.2-5.86,4.24a13.57,13.57,0,0,1-2.56,1.58,15.19,15.19,0,0,1,2.31-1.92l5.75-4.38,5.76-4.37A15.21,15.21,0,0,1,246.13,400Z" style="fill:#fafafa"/><path d="M246.2,390.58a93.24,93.24,0,0,1-7.78,7.06,95.07,95.07,0,0,1-8.16,6.6c-.11-.13,3.37-3.29,7.77-7.06S246.09,390.45,246.2,390.58Z" style="fill:#fafafa"/><rect width="7.63" height="57.15" x="307.76" y="375.3" style="fill:#455a64"/><path d="M315.08,383.09c0,.2-1.6.36-3.58.36s-3.57-.16-3.57-.36,1.6-.36,3.57-.36S315.08,382.89,315.08,383.09Z" style="fill:#fafafa"/><path d="M315.23,381.84c0,.2-1.6.36-3.57.36s-3.58-.16-3.58-.36,1.6-.36,3.58-.36S315.23,381.65,315.23,381.84Z" style="fill:#fafafa"/><path d="M315.08,428c0,.2-1.6.36-3.58.36s-3.57-.16-3.57-.36,1.6-.36,3.57-.36S315.08,427.83,315.08,428Z" style="fill:#fafafa"/><path d="M315.23,426.79c0,.19-1.6.35-3.57.35s-3.58-.16-3.58-.35,1.6-.36,3.58-.36S315.23,426.59,315.23,426.79Z" style="fill:#fafafa"/><path d="M311.35,419.32c-.2,0-.36-6.54-.36-14.62s.16-14.61.36-14.61.36,6.54.36,14.61S311.55,419.32,311.35,419.32Z" style="fill:#fafafa"/><rect width="15.27" height="57.15" x="265.92" y="374.94" style="fill:#263238"/><path d="M270.21,432.81a1.34,1.34,0,0,1-.18-.31c-.11-.21-.25-.52-.43-.95a16.42,16.42,0,0,1-1.11-3.87,10.09,10.09,0,0,1,.89-6.29,8.34,8.34,0,0,1,2.71-3,6.27,6.27,0,0,1,4.4-1,4.51,4.51,0,0,1,2.27,1.05,3,3,0,0,1,1.09,2.41,3.47,3.47,0,0,1-1.3,2.42,4.75,4.75,0,0,1-2.61,1.1,6.93,6.93,0,0,1-5.41-2,8.66,8.66,0,0,1-2.68-5.49,14.52,14.52,0,0,1,.79-6.37,11.68,11.68,0,0,1,3.74-5.57,6.11,6.11,0,0,1,3.3-1.3,4.26,4.26,0,0,1,3.43,1.22,2.77,2.77,0,0,1,.78,1.78,3.19,3.19,0,0,1-.52,1.87,5,5,0,0,1-3.08,2.1,7.19,7.19,0,0,1-6.73-2.25,11.3,11.3,0,0,1-2.62-6.43,15.74,15.74,0,0,1,.66-6.67,9.26,9.26,0,0,1,3.94-5.08,6.79,6.79,0,0,1,6.07-.63,3.17,3.17,0,0,1,2,2.33,3.71,3.71,0,0,1-.69,2.88,4.78,4.78,0,0,1-5.15,1.36,9,9,0,0,1-4.06-2.88,13,13,0,0,1-3-7.84,12.59,12.59,0,0,1,1.41-6.21,12.44,12.44,0,0,1,2.4-3.23,9.67,9.67,0,0,1,.79-.69,1.34,1.34,0,0,1,.3-.2,14.36,14.36,0,0,0-3.24,4.25,12.45,12.45,0,0,0-1.26,6.06,12.62,12.62,0,0,0,3,7.53,8.43,8.43,0,0,0,3.83,2.68,4.23,4.23,0,0,0,4.51-1.19A3.1,3.1,0,0,0,279,392a2.55,2.55,0,0,0-1.63-1.87,6.13,6.13,0,0,0-5.47.62,8.55,8.55,0,0,0-3.63,4.73,15.27,15.27,0,0,0-.61,6.37,10.57,10.57,0,0,0,2.45,6,6.49,6.49,0,0,0,6,2,4.28,4.28,0,0,0,2.64-1.78,2.18,2.18,0,0,0-.17-2.78,3.56,3.56,0,0,0-2.86-1,5.33,5.33,0,0,0-2.92,1.15,11,11,0,0,0-3.52,5.23,13.89,13.89,0,0,0-.78,6.07,8,8,0,0,0,2.45,5.11,6.35,6.35,0,0,0,4.92,1.84c1.68-.14,3.32-1.42,3.42-3a2.48,2.48,0,0,0-.89-2,4.1,4.1,0,0,0-2-.94,5.79,5.79,0,0,0-4.06.92,8,8,0,0,0-2.61,2.79,9.9,9.9,0,0,0-1,6.06,18.27,18.27,0,0,0,1,3.86A13.57,13.57,0,0,1,270.21,432.81Z" style="fill:#fafafa"/><rect width="26.49" height="52.04" x="281.39" y="380.06" style="fill:#808ef5"/><g style="opacity:.2"><rect width="26.49" height="52.04" x="281.39" y="380.06"/></g><path d="M307,388.71c0,.2-5.74.36-12.82.36s-12.82-.16-12.82-.36,5.74-.36,12.82-.36S307,388.51,307,388.71Z" style="fill:#e0e0e0"/><path d="M307.3,392.66c0,.19-5.66.36-12.65.36s-12.66-.17-12.66-.36,5.66-.36,12.66-.36S307.3,392.46,307.3,392.66Z" style="fill:#e0e0e0"/><path d="M308.15,426.22c0,.2-6,.36-13.33.36s-13.32-.16-13.32-.36,6-.36,13.32-.36S308.15,426,308.15,426.22Z" style="fill:#e0e0e0"/><path d="M307.8,421.59c0,.19-5.82.35-13,.35s-13-.16-13-.35,5.82-.36,13-.36S307.8,421.39,307.8,421.59Z" style="fill:#e0e0e0"/><rect width="15.27" height="57.15" x="214.81" y="374.57" style="fill:#455a64"/><path d="M219.11,432.45s-.08-.1-.18-.31-.26-.53-.44-.95a17,17,0,0,1-1.11-3.88,10.11,10.11,0,0,1,.9-6.29,8.36,8.36,0,0,1,2.7-3,6.28,6.28,0,0,1,4.4-1,4.6,4.6,0,0,1,2.27,1.05,3,3,0,0,1,1.1,2.41,3.43,3.43,0,0,1-1.31,2.42,4.7,4.7,0,0,1-2.6,1.11,7,7,0,0,1-5.41-2,8.72,8.72,0,0,1-2.69-5.49,14.69,14.69,0,0,1,.79-6.38,11.8,11.8,0,0,1,3.75-5.57,6.12,6.12,0,0,1,3.29-1.3A4.27,4.27,0,0,1,228,404.5a2.74,2.74,0,0,1,.79,1.79,3.26,3.26,0,0,1-.53,1.86,4.93,4.93,0,0,1-3.08,2.11,7.18,7.18,0,0,1-6.72-2.26,11.14,11.14,0,0,1-2.62-6.43,15.92,15.92,0,0,1,.65-6.67,9.17,9.17,0,0,1,3.95-5.07,6.74,6.74,0,0,1,6.06-.64,3.22,3.22,0,0,1,2,2.33,3.71,3.71,0,0,1-.7,2.88,4.77,4.77,0,0,1-5.14,1.36,8.85,8.85,0,0,1-4.06-2.88,13,13,0,0,1-3-7.83,12.46,12.46,0,0,1,1.41-6.21,12.3,12.3,0,0,1,2.4-3.24,8.23,8.23,0,0,1,.79-.69,1.34,1.34,0,0,1,.3-.2A14.74,14.74,0,0,0,217.2,379a12.35,12.35,0,0,0-1.26,6.07,12.54,12.54,0,0,0,3,7.52,8.37,8.37,0,0,0,3.82,2.68,4.22,4.22,0,0,0,4.52-1.19,3.06,3.06,0,0,0,.56-2.4,2.54,2.54,0,0,0-1.62-1.87,6.13,6.13,0,0,0-5.47.63,8.58,8.58,0,0,0-3.64,4.72,15.15,15.15,0,0,0-.6,6.38,10.51,10.51,0,0,0,2.44,6,6.49,6.49,0,0,0,6,2,4.23,4.23,0,0,0,2.63-1.78,2.18,2.18,0,0,0-.17-2.79,3.56,3.56,0,0,0-2.86-1,5.52,5.52,0,0,0-2.92,1.15,11.21,11.21,0,0,0-3.52,5.23,14.06,14.06,0,0,0-.78,6.08,8,8,0,0,0,2.46,5.1,6.29,6.29,0,0,0,4.91,1.84,3.65,3.65,0,0,0,3.43-3,2.46,2.46,0,0,0-.9-2,4,4,0,0,0-2-.95,5.82,5.82,0,0,0-4.07.92,7.94,7.94,0,0,0-2.6,2.8,9.87,9.87,0,0,0-1,6,18,18,0,0,0,1,3.86C218.94,432,219.13,432.44,219.11,432.45Z" style="fill:#fafafa"/><rect width="21.22" height="60.03" x="315.4" y="371.69" style="fill:#808ef5"/><rect width="19.84" height="53.44" x="194.97" y="378.27" style="fill:#263238"/><path d="M194.47,404.93a3,3,0,0,1-.65.84,8.93,8.93,0,0,1-2.31,1.78,10.92,10.92,0,0,1-4.14,1.28,10.58,10.58,0,0,1-5.24-.86c-1.73-.74-3.24-1.66-4.72-2.2a7.33,7.33,0,0,0-4-.51,4.71,4.71,0,0,0-2.42,1.26c-.47.47-.62.83-.67.8a1.89,1.89,0,0,1,.49-.95,4.6,4.6,0,0,1,2.51-1.52,7.51,7.51,0,0,1,4.32.39c1.56.54,3.09,1.46,4.77,2.17a10.29,10.29,0,0,0,4.95.87,11.06,11.06,0,0,0,4-1.11A16.79,16.79,0,0,0,194.47,404.93Z" style="fill:#fafafa"/><path d="M194.92,410.21a3.05,3.05,0,0,1-.65.85,9.11,9.11,0,0,1-2.31,1.78,10.92,10.92,0,0,1-4.14,1.28,10.56,10.56,0,0,1-5.24-.86c-1.73-.75-3.24-1.66-4.72-2.21a7.34,7.34,0,0,0-4-.5,4.8,4.8,0,0,0-2.43,1.26c-.46.47-.61.83-.66.8s.05-.4.49-.95a4.56,4.56,0,0,1,2.51-1.52,7.43,7.43,0,0,1,4.32.39c1.55.54,3.09,1.46,4.76,2.17a10.34,10.34,0,0,0,5,.86,10.86,10.86,0,0,0,4-1.1A16.4,16.4,0,0,0,194.92,410.21Z" style="fill:#fafafa"/><path d="M194.59,393.1c0,.16-5.47.3-12.2.3s-12.21-.14-12.21-.3,5.46-.3,12.21-.3S194.59,392.93,194.59,393.1Z" style="fill:#fafafa"/><path d="M203.58,386.88s.08-.19.38-.36a2.15,2.15,0,0,1,1.44-.2,2.43,2.43,0,0,1,1.75,1.31,2.43,2.43,0,0,1-3.21,3.09,2.44,2.44,0,0,1-1.24-1.8,2.18,2.18,0,0,1,.25-1.43c.19-.3.36-.39.38-.37a2.92,2.92,0,0,0-.21,1.72,2.11,2.11,0,0,0,1.06,1.38,1.91,1.91,0,0,0,2.46-2.37,2.09,2.09,0,0,0-1.34-1.11A2.93,2.93,0,0,0,203.58,386.88Z" style="fill:#fafafa"/><path d="M204.86,426.37c-.17,0-.3-7.5-.3-16.73s.13-16.74.3-16.74.3,7.49.3,16.74S205,426.37,204.86,426.37Z" style="fill:#fafafa"/><path d="M336.58,281.9c0,.17-41.46.3-92.58.3s-92.6-.13-92.6-.3,41.45-.3,92.6-.3S336.58,281.73,336.58,281.9Z" style="fill:#263238"/><path d="M336.58,357.74c0,.17-41.46.3-92.58.3s-92.6-.13-92.6-.3,41.45-.3,92.6-.3S336.58,357.58,336.58,357.74Z" style="fill:#263238"/><path d="M336.58,206.57c0,.16-41.46.3-92.58.3s-92.6-.14-92.6-.3,41.45-.31,92.6-.31S336.58,206.4,336.58,206.57Z" style="fill:#263238"/><path d="M336.58,131.35c0,.17-41.46.3-92.58.3s-92.6-.13-92.6-.3,41.45-.3,92.6-.3S336.58,131.18,336.58,131.35Z" style="fill:#263238"/><path d="M336.58,432.08c0,.17-41.46.3-92.58.3s-92.6-.13-92.6-.3,41.45-.3,92.6-.3S336.58,431.91,336.58,432.08Z" style="fill:#263238"/><path d="M140.84,474.17c-.06,0-.11-93.62-.11-209.07s.05-209.1.11-209.1.1,93.6.1,209.1S140.9,474.17,140.84,474.17Z" style="fill:#263238"/><path d="M146.46,474.17c-.06,0-.11-93.62-.11-209.07S146.4,56,146.46,56s.1,93.6.1,209.1S146.51,474.17,146.46,474.17Z" style="fill:#263238"/><path d="M342.53,473.85c-.06,0-.11-93.62-.11-209.08s.05-209.09.11-209.09.1,93.6.1,209.09S342.58,473.85,342.53,473.85Z" style="fill:#263238"/><path d="M348.14,473.85c-.05,0-.1-93.62-.1-209.08s0-209.09.1-209.09.11,93.6.11,209.09S348.2,473.85,348.14,473.85Z" style="fill:#263238"/><rect width="7.07" height="52.95" x="570.52" y="53.44" transform="translate(1148.12 159.84) rotate(180)" style="fill:#808ef5"/><path d="M570.82,60.66c0,.18,1.48.33,3.31.33s3.32-.15,3.32-.33-1.49-.34-3.32-.34S570.82,60.47,570.82,60.66Z" style="fill:#fafafa"/><path d="M570.67,59.5c0,.19,1.49.34,3.32.34s3.31-.15,3.31-.34-1.48-.33-3.31-.33S570.67,59.32,570.67,59.5Z" style="fill:#fafafa"/><path d="M570.82,102.3c0,.18,1.48.33,3.31.33s3.32-.15,3.32-.33S576,102,574.13,102,570.82,102.12,570.82,102.3Z" style="fill:#fafafa"/><path d="M570.67,101.15c0,.18,1.49.33,3.32.33s3.31-.15,3.31-.33-1.48-.34-3.31-.34S570.67,101,570.67,101.15Z" style="fill:#fafafa"/><path d="M574.28,94.23c.18,0,.33-6.06.33-13.54s-.15-13.55-.33-13.55-.34,6.06-.34,13.55S574.09,94.23,574.28,94.23Z" style="fill:#fafafa"/><rect width="14.15" height="52.95" x="602.22" y="53.1" transform="translate(1218.6 159.16) rotate(180)" style="fill:#263238"/><path d="M612.39,106.73s.07-.09.17-.28.23-.49.4-.89a15.22,15.22,0,0,0,1-3.59,9.37,9.37,0,0,0-.83-5.82,7.65,7.65,0,0,0-2.51-2.77,5.82,5.82,0,0,0-4.07-1,4.25,4.25,0,0,0-2.11,1,2.77,2.77,0,0,0-1,2.23,3.23,3.23,0,0,0,1.21,2.25,4.36,4.36,0,0,0,2.41,1,6.41,6.41,0,0,0,5-1.82A8.06,8.06,0,0,0,614.58,92a13.62,13.62,0,0,0-.73-5.91,10.86,10.86,0,0,0-3.47-5.16,5.65,5.65,0,0,0-3-1.2,3.94,3.94,0,0,0-3.18,1.13,2.58,2.58,0,0,0-.73,1.65,3,3,0,0,0,.49,1.73,4.58,4.58,0,0,0,2.85,2A6.64,6.64,0,0,0,613,84.08a10.36,10.36,0,0,0,2.43-6,14.62,14.62,0,0,0-.61-6.18,8.51,8.51,0,0,0-3.65-4.7,6.28,6.28,0,0,0-5.62-.59,3,3,0,0,0-1.83,2.16,3.4,3.4,0,0,0,.64,2.67,4.44,4.44,0,0,0,4.77,1.26,8.25,8.25,0,0,0,3.76-2.67,12,12,0,0,0,2.82-7.26,11.59,11.59,0,0,0-1.31-5.75,11.43,11.43,0,0,0-2.22-3,8.66,8.66,0,0,0-.74-.64q-.25-.2-.27-.18a13.38,13.38,0,0,1,3,3.93,11.44,11.44,0,0,1-1.64,12.59A7.79,7.79,0,0,1,609,72.25a3.92,3.92,0,0,1-4.18-1.1,2.9,2.9,0,0,1-.52-2.23,2.37,2.37,0,0,1,1.5-1.73,5.65,5.65,0,0,1,5.07.58,7.89,7.89,0,0,1,3.37,4.38,14,14,0,0,1,.56,5.9,9.76,9.76,0,0,1-2.27,5.59,6,6,0,0,1-5.59,1.88,4,4,0,0,1-2.44-1.65,2,2,0,0,1,.16-2.58,3.32,3.32,0,0,1,2.65-.92A5,5,0,0,1,610,81.43a10.44,10.44,0,0,1,3.26,4.85,13,13,0,0,1,.72,5.63,7.43,7.43,0,0,1-2.28,4.73,5.85,5.85,0,0,1-4.55,1.7A3.37,3.37,0,0,1,604,95.6a2.27,2.27,0,0,1,.83-1.84,3.78,3.78,0,0,1,1.86-.88,5.36,5.36,0,0,1,3.76.86,7.32,7.32,0,0,1,2.41,2.59,9.07,9.07,0,0,1,.9,5.61,16.3,16.3,0,0,1-.89,3.57C612.55,106.31,612.37,106.72,612.39,106.73Z" style="fill:#fafafa"/><rect width="24.55" height="48.22" x="577.49" y="57.85" transform="translate(1179.52 163.93) rotate(180)" style="fill:#808ef5"/><g style="opacity:.2"><rect width="24.55" height="48.22" x="577.49" y="57.85" transform="translate(1179.52 163.93) rotate(180)"/></g><path d="M578.33,65.87c0,.18,5.32.33,11.88.33s11.88-.15,11.88-.33-5.32-.34-11.88-.34S578.33,65.68,578.33,65.87Z" style="fill:#e0e0e0"/><path d="M578,69.52c0,.19,5.25.34,11.73.34s11.73-.15,11.73-.34-5.25-.33-11.73-.33S578,69.34,578,69.52Z" style="fill:#e0e0e0"/><path d="M577.23,100.63c0,.18,5.53.33,12.35.33s12.36-.15,12.36-.33-5.53-.34-12.36-.34S577.23,100.44,577.23,100.63Z" style="fill:#e0e0e0"/><path d="M577.57,96.33c0,.18,5.38.33,12,.33s12-.15,12-.33-5.39-.33-12-.33S577.57,96.14,577.57,96.33Z" style="fill:#e0e0e0"/><rect width="7.39" height="44.02" x="482.92" y="62.18" transform="translate(973.23 168.37) rotate(180)" style="fill:#808ef5"/><g style="opacity:.30000000000000004"><rect width="7.39" height="44.02" x="482.92" y="62.18" transform="translate(973.23 168.37) rotate(180)"/></g><rect width="18.41" height="50.16" x="464.38" y="56.04" transform="translate(947.16 162.23) rotate(180)" style="fill:#e0e0e0"/><path d="M464.16,59.66a158.09,158.09,0,0,1,18.81,0,80.47,80.47,0,0,1-9.41.28A80.36,80.36,0,0,1,464.16,59.66Z" style="fill:#fafafa"/><path d="M465.18,62A141.43,141.43,0,0,1,483,62a72,72,0,0,1-8.9.28A71.88,71.88,0,0,1,465.18,62Z" style="fill:#fafafa"/><path d="M473.05,96.31c-.15,0-.27-6.65-.27-14.84s.12-14.84.27-14.84.28,6.64.28,14.84S473.21,96.31,473.05,96.31Z" style="fill:#fafafa"/><path d="M464.38,100.89a145.1,145.1,0,0,1,18,0,145.1,145.1,0,0,1-18,0Z" style="fill:#fafafa"/><path d="M464.38,103.05a152.44,152.44,0,0,1,18.47,0,158.07,158.07,0,0,1-18.47,0Z" style="fill:#fafafa"/><rect width="14.79" height="50.16" x="490.19" y="56.04" transform="translate(995.18 162.23) rotate(180)" style="fill:#808ef5"/><path d="M490.1,79.07a13.63,13.63,0,0,1,2.29,1.42l5.34,3.64,5.32,3.67a12.35,12.35,0,0,1,2.14,1.63,12.62,12.62,0,0,1-2.35-1.3c-1.42-.86-3.34-2.1-5.43-3.54s-3.94-2.78-5.25-3.78A12.64,12.64,0,0,1,490.1,79.07Z" style="fill:#fafafa"/><path d="M490,71.22a79.31,79.31,0,0,1,7.55,5.49,79.16,79.16,0,0,1,7.22,5.93,74.65,74.65,0,0,1-7.56-5.49A76.49,76.49,0,0,1,490,71.22Z" style="fill:#fafafa"/><rect width="8.74" height="10.39" x="552.36" y="69.82" style="fill:#f5f5f5"/><rect width="39.48" height="11.72" x="513.18" y="69.14" style="fill:#263238"/><path d="M561.36,70.13H551.6v-1h9.76a.49.49,0,0,1,.49.49h0A.49.49,0,0,1,561.36,70.13Z" style="fill:#263238"/><path d="M561.36,80.86H551.6v-1h9.76a.49.49,0,0,1,.49.49h0A.49.49,0,0,1,561.36,80.86Z" style="fill:#263238"/><rect width="4.66" height="11.72" x="544.89" y="69.14" style="fill:#ebebeb"/><rect width="4.66" height="11.72" x="516.93" y="69.27" style="fill:#ebebeb"/><path d="M561.09,71.54s-1.89,0-4.22,0-4.22,0-4.22,0,1.89-.06,4.22-.06S561.09,71.51,561.09,71.54Z" style="fill:#e0e0e0"/><path d="M561.09,73.09s-1.89,0-4.22,0-4.22,0-4.22,0,1.89,0,4.22,0S561.09,73.06,561.09,73.09Z" style="fill:#e0e0e0"/><path d="M561.09,75s-1.89,0-4.22,0-4.22,0-4.22,0,1.89-.05,4.22-.05S561.09,75,561.09,75Z" style="fill:#e0e0e0"/><path d="M561.09,76.93s-1.89,0-4.22,0-4.22,0-4.22,0,1.89-.05,4.22-.05S561.09,76.9,561.09,76.93Z" style="fill:#e0e0e0"/><path d="M561.09,78.85s-1.89.05-4.22.05-4.22,0-4.22-.05,1.89-.06,4.22-.06S561.09,78.82,561.09,78.85Z" style="fill:#e0e0e0"/><rect width="17.76" height="2.11" x="524.62" y="73.96" style="fill:#ebebeb"/><rect width="8.87" height="6.33" x="552.13" y="81.09" style="fill:#fafafa"/><rect width="37.75" height="6.79" x="514.48" y="80.86" style="fill:#455a64"/><path d="M552,81.32h9.53a.23.23,0,0,0,.23-.23h0a.23.23,0,0,0-.23-.23H552Z" style="fill:#455a64"/><path d="M552,87.64h9.53a.23.23,0,0,0,.23-.23h0a.23.23,0,0,0-.23-.23H552Z" style="fill:#455a64"/><path d="M561,82.29s-2,0-4.38,0-4.39,0-4.39,0,2-.05,4.39-.05S561,82.26,561,82.29Z" style="fill:#e0e0e0"/><path d="M561,83.49s-2,.05-4.38.05-4.39,0-4.39-.05,2-.06,4.39-.06S561,83.46,561,83.49Z" style="fill:#e0e0e0"/><path d="M561,84.68s-2,0-4.38,0-4.39,0-4.39,0,2-.05,4.39-.05S561,84.65,561,84.68Z" style="fill:#e0e0e0"/><path d="M561,85.88s-2,.05-4.38.05-4.39,0-4.39-.05,2,0,4.39,0S561,85.85,561,85.88Z" style="fill:#e0e0e0"/><rect width="9.05" height="17.15" x="553.29" y="88.25" style="fill:#ebebeb"/><rect width="42.5" height="18.6" x="510.8" y="87.64" style="fill:#808ef5"/><path d="M563.06,106.24H552.13V105h10.93a.6.6,0,0,1,.6.6h0A.6.6,0,0,1,563.06,106.24Z" style="fill:#808ef5"/><path d="M563.06,88.85H552.13V87.64h10.93a.6.6,0,0,1,.6.61h0A.6.6,0,0,1,563.06,88.85Z" style="fill:#808ef5"/><path d="M562.35,90.55s-2,0-4.53,0-4.53,0-4.53,0,2-.06,4.53-.06S562.35,90.52,562.35,90.55Z" style="fill:#e0e0e0"/><path d="M562.35,92.75s-2,0-4.53,0-4.53,0-4.53,0,2-.06,4.53-.06S562.35,92.72,562.35,92.75Z" style="fill:#e0e0e0"/><path d="M562.35,95s-2,0-4.53,0-4.53,0-4.53,0,2-.06,4.53-.06S562.35,94.92,562.35,95Z" style="fill:#e0e0e0"/><path d="M562.35,97.15s-2,0-4.53,0-4.53,0-4.53,0,2-.06,4.53-.06S562.35,97.12,562.35,97.15Z" style="fill:#e0e0e0"/><path d="M562.35,99.35s-2,.05-4.53.05-4.53,0-4.53-.05,2-.06,4.53-.06S562.35,99.32,562.35,99.35Z" style="fill:#e0e0e0"/><path d="M562.35,101.55s-2,0-4.53,0-4.53,0-4.53,0,2-.06,4.53-.06S562.35,101.52,562.35,101.55Z" style="fill:#e0e0e0"/><path d="M562.35,103.75s-2,0-4.53,0-4.53,0-4.53,0,2-.06,4.53-.06S562.35,103.72,562.35,103.75Z" style="fill:#e0e0e0"/><path d="M525.34,98v1c0,1.24-.62,2-1.82,2a1.7,1.7,0,0,1-1.83-2V95c0-1.25.62-2,1.83-2s1.82.71,1.82,2v.75h-1.16v-.83c0-.56-.24-.77-.63-.77s-.64.21-.64.77v4.2c0,.56.25.76.64.76s.63-.2.63-.76V98Z" style="fill:#ebebeb"/><path d="M526,95a1.86,1.86,0,1,1,3.72,0v4A1.86,1.86,0,1,1,526,99Zm1.23,4.12c0,.56.24.77.63.77s.64-.21.64-.77v-4.2c0-.56-.25-.77-.64-.77s-.63.21-.63.77Z" style="fill:#ebebeb"/><path d="M530.49,93.08h1.22v6.67h2v1.12h-3.24Z" style="fill:#ebebeb"/><path d="M534.16,95a1.86,1.86,0,1,1,3.72,0v4a1.86,1.86,0,1,1-3.72,0Zm1.23,4.12c0,.56.24.77.63.77s.63-.21.63-.77v-4.2c0-.56-.24-.77-.63-.77s-.63.21-.63.77Z" style="fill:#ebebeb"/><path d="M539.84,93.08v6c0,.56.24.76.63.76s.63-.2.63-.76v-6h1.16V99c0,1.24-.62,2-1.82,2a1.71,1.71,0,0,1-1.83-2V93.08Z" style="fill:#ebebeb"/><path d="M545.65,100.87a2.63,2.63,0,0,1-.11-1V98.68c0-.72-.24-1-.8-1h-.42v3.18H543.1V93.08h1.84c1.27,0,1.82.59,1.82,1.79v.61a1.56,1.56,0,0,1-.8,1.58c.61.26.81.85.81,1.66v1.2a2.35,2.35,0,0,0,.13,1Zm-1.33-6.68v2.39h.48c.45,0,.73-.2.73-.82V95c0-.56-.19-.8-.62-.8Z" style="fill:#ebebeb"/><path d="M525.08,83.53h-.9l.05-.23h2l0,.23h-.89l-.46,2.3h-.26Z" style="fill:#e0e0e0"/><path d="M528,83.93l-1.39,2.14c-.23.36-.41.48-.69.48a.63.63,0,0,1-.45-.17l.14-.19a.43.43,0,0,0,.34.14c.16,0,.28-.08.43-.31l.14-.2L526,83.93h.26l.4,1.62,1-1.62Z" style="fill:#e0e0e0"/><path d="M530.11,84.71A1.07,1.07,0,0,1,529,85.85a.71.71,0,0,1-.72-.42l-.22,1.1h-.25l.51-2.6h.25l-.06.3a1,1,0,0,1,.74-.32A.77.77,0,0,1,530.11,84.71Zm-.26,0a.56.56,0,0,0-.62-.59.82.82,0,0,0-.82.89.55.55,0,0,0,.62.59A.83.83,0,0,0,529.85,84.73Z" style="fill:#e0e0e0"/><path d="M530.41,85a1.08,1.08,0,0,1,1.1-1.13.77.77,0,0,1,.86.8,1.08,1.08,0,0,1-1.1,1.14A.79.79,0,0,1,530.41,85Zm1.7-.31a.55.55,0,0,0-.62-.59.83.83,0,0,0-.82.89.55.55,0,0,0,.62.59A.83.83,0,0,0,532.11,84.73Z" style="fill:#e0e0e0"/><path d="M534.83,83.93l-.33,1.67a1,1,0,0,1-1.11,1,1.17,1.17,0,0,1-.84-.29l.15-.19a1,1,0,0,0,.71.25.74.74,0,0,0,.82-.68l0-.21a1,1,0,0,1-.76.33.76.76,0,0,1-.84-.77,1.05,1.05,0,0,1,1.09-1.08.73.73,0,0,1,.74.44l.08-.42Zm-.43.76c0-.35-.24-.55-.63-.55a.8.8,0,0,0-.83.83c0,.35.23.56.63.56A.81.81,0,0,0,534.4,84.69Z" style="fill:#e0e0e0"/><path d="M536.51,83.91l0,.25h-.07a.75.75,0,0,0-.77.7l-.19,1h-.26l.38-1.9h.24l-.06.34A.86.86,0,0,1,536.51,83.91Z" style="fill:#e0e0e0"/><path d="M538.68,83.93l-.37,1.9h-.25l.06-.3a1,1,0,0,1-.74.32.77.77,0,0,1-.83-.81,1.08,1.08,0,0,1,1.08-1.13.72.72,0,0,1,.72.41l.08-.39Zm-.42.8a.56.56,0,0,0-.63-.59.83.83,0,0,0-.82.89.56.56,0,0,0,.62.59A.83.83,0,0,0,538.26,84.73Z" style="fill:#e0e0e0"/><path d="M541.15,84.71a1.07,1.07,0,0,1-1.08,1.14.71.71,0,0,1-.72-.42l-.21,1.1h-.26l.52-2.6h.24l-.06.3a1,1,0,0,1,.74-.32A.77.77,0,0,1,541.15,84.71Zm-.26,0a.56.56,0,0,0-.62-.59.82.82,0,0,0-.82.89.55.55,0,0,0,.62.59A.83.83,0,0,0,540.89,84.73Z" style="fill:#e0e0e0"/><path d="M543.45,84.53a.86.86,0,0,1,0,.22l-.22,1.08H543l.21-1.09a1.11,1.11,0,0,0,0-.17c0-.27-.16-.43-.49-.43a.74.74,0,0,0-.77.67l-.2,1h-.26l.53-2.68h.26l-.21,1.06a.94.94,0,0,1,.72-.3A.6.6,0,0,1,543.45,84.53Z" style="fill:#e0e0e0"/><path d="M545.85,83.93l-1.38,2.14c-.24.36-.42.48-.69.48a.6.6,0,0,1-.45-.17l.14-.19a.42.42,0,0,0,.33.14c.16,0,.29-.08.44-.31l.13-.2-.47-1.89h.26l.39,1.62,1-1.62Z" style="fill:#e0e0e0"/><rect width="171.08" height="9.77" x="452.99" y="105.9" style="fill:#455a64"/><rect width="14.94" height="9.77" x="609.13" y="105.9" style="fill:#263238"/></g><g id="freepik--character-2--inject-2"><path d="M535.72,438.75l-10.21,16.4,31.22,19.66c1.7-3.09-10.68-19.25-10.68-19.25l5-7.28Z" style="fill:#808ef5"/><g style="opacity:.30000000000000004"><path d="M535.66,438.75l-10.21,16.4,31.22,19.66c1.69-3.09-10.69-19.25-10.69-19.25l5-7.28Z"/></g><path d="M525.51,455.05l1.57-2.55,29.3,20.05s1,1.49.22,2.36Z" style="fill:#263238"/><path d="M546.59,455.72c-.1.15-.91-.26-2-.25s-1.86.41-2,.26.68-.88,2-.88S546.71,455.6,546.59,455.72Z" style="fill:#263238"/><path d="M549,459.13c-.06.17-.88,0-1.8.34s-1.51.9-1.65.8.29-1,1.45-1.4S549.1,459,549,459.13Z" style="fill:#263238"/><path d="M548.4,464.22c-.16-.05.11-1,1-1.53s1.84-.48,1.82-.31-.74.34-1.48.83S548.56,464.3,548.4,464.22Z" style="fill:#263238"/><path d="M548.63,451.86c-.15.1-.72-.55-1.61-1s-1.75-.64-1.74-.82,1-.32,2,.27S548.78,451.79,548.63,451.86Z" style="fill:#263238"/><path d="M538.1,438.94l10.17,15.84-30.93,20.1c-1.74-3.07,10.41-19.41,10.41-19.41L523,448.66Z" style="fill:#808ef5"/><path d="M548.28,454.82l-1.61-2.53-29,20.47s-1,1.5-.19,2.36Z" style="fill:#263238"/><path d="M527.14,455.64c.11.15.9-.27,2-.27s1.87.38,2,.23-.69-.87-2-.86S527,455.53,527.14,455.64Z" style="fill:#263238"/><path d="M524.77,459.09c.06.17.88,0,1.81.31s1.51.88,1.66.78-.31-1-1.47-1.38S524.68,459,524.77,459.09Z" style="fill:#263238"/><path d="M525.45,464.17c.16-.05-.12-.94-1.05-1.52s-1.84-.44-1.83-.28.75.33,1.5.81S525.29,464.26,525.45,464.17Z" style="fill:#263238"/><path d="M525.05,451.82c.15.1.71-.56,1.6-1.06s1.73-.66,1.72-.84-1-.3-2,.3S524.89,451.75,525.05,451.82Z" style="fill:#263238"/><path d="M536.44,447.92a1.5,1.5,0,0,1,1.81.87,1.44,1.44,0,0,1-.85,1.8,1.58,1.58,0,0,1-1.91-.93,1.5,1.5,0,0,1,1.09-1.78" style="fill:#fff"/><path d="M496.27,328.88,566,330.41l-1.25-93-20-4.63-21.48.22-16.1,3.57a15.88,15.88,0,0,0-9.39,6.15l-30.22,41.48a26.12,26.12,0,0,0-4.68,10.85,14,14,0,0,0,2.48,9.53c1.89,2.17,22.66,1.39,38.66.9l.36,4.81Zm-7.16-41.53,13.11-12.71.51,14Z" style="fill:#808ef5"/><path d="M542.75,251.53c0,1.14,7,29.23,10.35,35.35s3.86,17.75,14.69,17.75c7.42,0,13.74-9,12.39-15.67-5.94-29.51-7.23-50.6-15.43-51.59l-2.63,24.49L554.46,246Z" style="fill:#808ef5"/><path d="M520.54,303.92a5.38,5.38,0,0,1,.1-1c.1-.7.23-1.61.39-2.75.38-2.43.9-5.8,1.53-9.84l.19.25-17.23-1.49-16.47-1.5H489l-.05,0a11.32,11.32,0,0,0-5.4-2,20.7,20.7,0,0,0-4.52,0c-1.25.12-2.24.26-2.91.35a7.66,7.66,0,0,1-1,.1,6.06,6.06,0,0,1,1-.24c.67-.12,1.64-.31,2.9-.46a20,20,0,0,1,4.59-.09,11.58,11.58,0,0,1,5.62,2l-.11,0,16.48,1.42,17.22,1.56.23,0,0,.23c-.7,4-1.28,7.38-1.7,9.81q-.33,1.69-.51,2.73A4.52,4.52,0,0,1,520.54,303.92Z" style="fill:#263238"/><path d="M573,302.7a3.59,3.59,0,0,1-.91.84,6.71,6.71,0,0,1-3.34,1.17,10.37,10.37,0,0,1-5.47-1.23,16,16,0,0,1-3-1.92,17.38,17.38,0,0,1-2.7-2.88,29.57,29.57,0,0,1-4-8.07c-1.07-3.07-1.87-6.44-2.81-9.95l-6.22-22.82-1.65-6.42-.06-.21.2-.09,11.35-5.31.23-.1.1.22c5.09,11,9.79,20.28,13.32,26.74,1.77,3.24,3.24,5.77,4.3,7.48.51.86.94,1.5,1.21,2l.31.5.1.18s0,0-.13-.15l-.35-.49c-.3-.42-.75-1.06-1.28-1.91-1.1-1.68-2.62-4.19-4.43-7.41-3.61-6.43-8.37-15.69-13.5-26.68l.33.12-11.34,5.33.14-.3q.81,3.17,1.66,6.42c2.15,8.1,4.34,15.79,6.17,22.83.94,3.52,1.71,6.88,2.76,9.93a29.32,29.32,0,0,0,3.92,8,17.59,17.59,0,0,0,2.62,2.85,15.72,15.72,0,0,0,2.87,1.91,10.3,10.3,0,0,0,5.32,1.29,6.82,6.82,0,0,0,3.3-1.06A9.25,9.25,0,0,0,573,302.7Z" style="fill:#263238"/><path d="M574.24,275.56a24.5,24.5,0,0,0-4-4.92,24.14,24.14,0,0,0-5.45-3.25,5,5,0,0,1,1.85.47,13.79,13.79,0,0,1,6.87,5.94A5.19,5.19,0,0,1,574.24,275.56Z" style="fill:#263238"/><path d="M566.66,238.36c0,.09-1,.6-2.24,1.83a16.25,16.25,0,0,0-3.71,5.78,18.85,18.85,0,0,0-1,3.67c-.19,1.16-.25,2.22-.32,3.12a13.84,13.84,0,0,1-.33,2.9,19.62,19.62,0,0,1,0-2.92,25.68,25.68,0,0,1,.21-3.17,17.35,17.35,0,0,1,1-3.78,15,15,0,0,1,3.94-5.87,10.44,10.44,0,0,1,1.76-1.25C566.38,238.43,566.64,238.33,566.66,238.36Z" style="fill:#263238"/><g style="opacity:.30000000000000004"><path d="M564.37,267a20.18,20.18,0,0,1,7.34,2.3,9,9,0,0,1,4.49,6c.1.6,0,1.4-.61,1.51s-1-.5-1.21-1a18.7,18.7,0,0,0-9.92-8.79"/></g><path d="M502.62,285.53a7.78,7.78,0,0,1-.15-1.41c-.07-1-.14-2.3-.24-3.85-.17-3.25-.38-7.73-.57-12.69s-.34-9.45-.42-12.7c0-1.55-.05-2.84-.07-3.85a8.48,8.48,0,0,1,.05-1.42,7.12,7.12,0,0,1,.16,1.41c.06,1,.14,2.3.23,3.85.17,3.24.38,7.73.57,12.69s.34,9.45.42,12.7c0,1.55,0,2.84.07,3.85A7.22,7.22,0,0,1,502.62,285.53Z" style="fill:#263238"/><g style="opacity:.30000000000000004"><path d="M489.19,287.6a4.94,4.94,0,0,0-2.94-4,13.59,13.59,0,0,0-5.06-1.05,5.56,5.56,0,0,0-3.5.55,1.44,1.44,0,0,0-.68,1.7c.34.65,1.24.66,2,.62a21.14,21.14,0,0,1,10.26,2.08"/></g><path d="M566.11,237.75a3.39,3.39,0,0,1-.65.05l-1.88.06-6.9.16c-5.82.13-13.86.4-22.74.7s-16.94.5-22.76.55c-2.92,0-5.27,0-6.9,0l-1.88,0a3.26,3.26,0,0,1-.65-.05,2.74,2.74,0,0,1,.65-.06l1.88-.05,6.89-.16c5.82-.14,13.87-.4,22.75-.7s16.93-.51,22.76-.55c2.91,0,5.27,0,6.9,0l1.88,0A2.59,2.59,0,0,1,566.11,237.75Z" style="fill:#fff"/><path d="M501,251.36a14.51,14.51,0,0,1-3.34-1.92c-.89-.59-1.66-1.19-2.22-1.54s-1-.44-1-.52.48-.11,1.15.19a21.52,21.52,0,0,1,2.34,1.43A14.47,14.47,0,0,1,501,251.36Z" style="fill:#fff"/><path d="M542.19,251.9c0,.14-9.16.26-20.45.26s-20.44-.12-20.44-.26,9.15-.26,20.44-.26S542.19,251.75,542.19,251.9Z" style="fill:#fff"/><path d="M572.23,250.22a50.89,50.89,0,0,0-6.62,2.48,50,50,0,0,0-5.94,3.84,6.27,6.27,0,0,1,1.47-1.51,21.17,21.17,0,0,1,4.23-2.79,21.61,21.61,0,0,1,4.77-1.74A6.55,6.55,0,0,1,572.23,250.22Z" style="fill:#fff"/><path d="M574.42,262.93c0,.16-2.5-.17-5.51.27a33,33,0,0,0-5.08,1.2l-.7.17.62-.31c.18-.09.27-.12.29-.1s0,.1-.2.23l-.07-.14a15.14,15.14,0,0,1,5.07-1.57A12.45,12.45,0,0,1,574.42,262.93Z" style="fill:#fff"/><path d="M558.64,255.51a7.15,7.15,0,0,1-1.71,1.13,35.29,35.29,0,0,1-9.22,3.51,6.82,6.82,0,0,1-2,.29c0-.15,3-.84,6.58-2.21S558.56,255.37,558.64,255.51Z" style="fill:#fff"/><path d="M565.13,268.62a10.25,10.25,0,0,1-2,1.4,46.89,46.89,0,0,1-5.36,2.71,48.3,48.3,0,0,1-5.66,2,10.25,10.25,0,0,1-2.43.51,13.14,13.14,0,0,1,2.32-.86c1.45-.5,3.43-1.21,5.57-2.12s4-1.85,5.38-2.55A13.73,13.73,0,0,1,565.13,268.62Z" style="fill:#fff"/><path d="M573.11,282.24s-.15.26-.5.66a17.5,17.5,0,0,1-1.58,1.6,28,28,0,0,1-6.09,4.22,27.36,27.36,0,0,1-7,2.45,18.81,18.81,0,0,1-2.22.34,2.45,2.45,0,0,1-.83,0c0-.08,1.15-.25,3-.71a32.19,32.19,0,0,0,12.92-6.59C572.23,283,573,282.18,573.11,282.24Z" style="fill:#fff"/><path d="M575.07,283.51a7.13,7.13,0,0,1,1.24,2,18,18,0,0,1,1.56,5.47,17.79,17.79,0,0,1-.24,5.68,6.93,6.93,0,0,1-.73,2.24,22.56,22.56,0,0,0-1.83-15.4Z" style="fill:#fff"/><path d="M501.58,273.93c-.1.09-3.44-3.24-7.45-7.44s-7.18-7.7-7.08-7.8,3.44,3.23,7.46,7.44A104.75,104.75,0,0,1,501.58,273.93Z" style="fill:#fff"/><path d="M491,286a19.06,19.06,0,0,1-1.9-2.23c-1.14-1.41-2.73-3.33-4.58-5.37s-3.6-3.82-4.89-5.1a18.89,18.89,0,0,1-2-2.11,15.11,15.11,0,0,1,2.29,1.85c1.35,1.21,3.15,3,5,5a69.77,69.77,0,0,1,4.49,5.49A13.28,13.28,0,0,1,491,286Z" style="fill:#fff"/><path d="M474.45,286a14.57,14.57,0,0,0-9.22,3.11,9.41,9.41,0,0,1,9.22-3.11Z" style="fill:#fff"/><path d="M479.65,306.59a2.7,2.7,0,0,1-.17-.83,13.13,13.13,0,0,1-.11-2.29,18.25,18.25,0,0,1,.43-3.38,20.84,20.84,0,0,1,1.36-3.95,20.32,20.32,0,0,1,2.19-3.56,17.82,17.82,0,0,1,2.35-2.48,14.45,14.45,0,0,1,1.83-1.37,2.74,2.74,0,0,1,.75-.39c.05.08-.95.72-2.33,2a20.47,20.47,0,0,0-2.22,2.49,22.7,22.7,0,0,0-2.1,3.49,22.2,22.2,0,0,0-1.36,3.84,20,20,0,0,0-.53,3.29C479.6,305.39,479.75,306.58,479.65,306.59Z" style="fill:#fff"/><path d="M498,304.73a7.38,7.38,0,0,1-.72-2.27,19.38,19.38,0,0,1-.29-5.76,19.87,19.87,0,0,1,1.38-5.6,7.52,7.52,0,0,1,1.14-2.1A25.4,25.4,0,0,0,498,304.73Z" style="fill:#fff"/><path d="M511.8,304.59a6.41,6.41,0,0,1-.6-2,22.1,22.1,0,0,1,.34-10,6.39,6.39,0,0,1,.74-1.94,52.62,52.62,0,0,0-1,6.93A53.52,53.52,0,0,0,511.8,304.59Z" style="fill:#fff"/><path d="M546.68,268.85a12.49,12.49,0,0,1-1.74,0l-4.73,0-15.62-.13-15.61,0-4.73,0a10.38,10.38,0,0,1-1.74-.07,12.24,12.24,0,0,1,1.73-.13c1.12-.05,2.74-.1,4.73-.15,4-.09,9.52-.16,15.63-.12s11.62.15,15.61.28c2,.07,3.62.14,4.73.2A10.28,10.28,0,0,1,546.68,268.85Z" style="fill:#fff"/><path d="M550.7,286.59c0,.14-10.52-.08-23.48-.49s-23.47-.86-23.47-1,10.52.08,23.49.49S550.71,286.44,550.7,286.59Z" style="fill:#fff"/><path d="M558.19,300.64c0,.14-7.81-.19-17.43-.74s-17.4-1.12-17.39-1.26,7.81.18,17.42.74S558.2,300.49,558.19,300.64Z" style="fill:#fff"/><path d="M565.13,315.15c0,.15-13.56,0-30.27-.39s-30.26-.78-30.26-.92,13.55,0,30.27.4S565.13,315,565.13,315.15Z" style="fill:#fff"/><path d="M565.49,324.29a3.22,3.22,0,0,1-.68,0l-1.94,0h-7.16l-23.62.19c-9.23.09-17.59.12-23.64,0-3,0-5.47-.09-7.16-.15l-1.94-.08a3.28,3.28,0,0,1-.68-.07,3.22,3.22,0,0,1,.68,0h1.95l7.16,0,23.62-.19c9.23-.09,17.58-.12,23.63,0,3,0,5.47.09,7.16.15l2,.09A2.94,2.94,0,0,1,565.49,324.29Z" style="fill:#fff"/><rect width="49.98" height="12.02" x="507.27" y="363.21" style="fill:#455a64"/><polygon points="511.17 375.23 485.72 473.93 491.21 473.93 519.11 375.23 511.17 375.23" style="fill:#455a64"/><polygon points="552 375.23 577.64 473.93 572.15 473.93 544.06 375.23 552 375.23" style="fill:#455a64"/><path d="M544.15,375.54c.08.09-7.31,6.72-16.49,14.8S511,404.9,510.87,404.81s7.3-6.72,16.49-14.81S544.06,375.45,544.15,375.54Z" style="fill:#263238"/><path d="M556.57,405.13c-.08.1-8.73-6.55-19.32-14.84s-19.13-15.1-19-15.2,8.72,6.55,19.32,14.85S556.65,405,556.57,405.13Z" style="fill:#263238"/><path d="M537.18,448.13a1.51,1.51,0,0,0-1.8.89,1.45,1.45,0,0,0,.88,1.79,1.58,1.58,0,0,0,1.9-1,1.51,1.51,0,0,0-1.12-1.76" style="fill:#fff"/><path d="M557,375.23c0,.12-10.91.22-24.37.22s-24.38-.1-24.38-.22,10.91-.22,24.38-.22S557,375.11,557,375.23Z" style="fill:#263238"/><path d="M496.78,326.61s-27.17,26.79-21.46,46c4.52,15.15,43.79,78.7,43.79,78.7l23.59-15.43L512,378.69a46.23,46.23,0,0,0-1.74-8.25l1.74-2.28s10.17-4.82,18.71-4.25l.76-37Z" style="fill:#263238"/><path d="M530.72,363.91s15.89,3.92,19.19,4c2.1,0,1,6.28,2.09,8.84l0,.56-22.29,59.06,23,13.57s17.39-43.75,21.09-51.15,9.66-24.61,11.94-29.73-.85-14-4.84-21.65-16.51-20.49-16.51-20.49H531.48Z" style="fill:#263238"/><path d="M576.69,354a29.41,29.41,0,0,0-4.22-1.05,17.61,17.61,0,0,0-17.82,8.48,28.3,28.3,0,0,0-1.86,3.94,5.74,5.74,0,0,1,.28-1.15,15.85,15.85,0,0,1,1.31-2.95,17.33,17.33,0,0,1,18.13-8.63,15.72,15.72,0,0,1,3.12.86A5.21,5.21,0,0,1,576.69,354Z" style="fill:#455a64"/><path d="M563.5,367.88a16.66,16.66,0,0,1-1.94,1.14,38.52,38.52,0,0,0-4.47,3,39.41,39.41,0,0,0-4,3.63,16.66,16.66,0,0,1-1.56,1.62,8.74,8.74,0,0,1,1.33-1.83,28.2,28.2,0,0,1,8.53-6.71A8.36,8.36,0,0,1,563.5,367.88Z" style="fill:#455a64"/><path d="M512.07,368.14c-.08.05-.83-1.17-2.41-2.82a22.35,22.35,0,0,0-3-2.64,24.5,24.5,0,0,0-4.25-2.42,25.55,25.55,0,0,0-4.67-1.48,24.43,24.43,0,0,0-4-.48c-2.28-.07-3.7.15-3.71.06a3.9,3.9,0,0,1,1-.2,10.38,10.38,0,0,1,1.17-.12,15,15,0,0,1,1.56-.05,21.57,21.57,0,0,1,4.05.39,23.53,23.53,0,0,1,4.77,1.47,23.93,23.93,0,0,1,4.31,2.5,20.66,20.66,0,0,1,3,2.75,13.51,13.51,0,0,1,1,1.21,9.31,9.31,0,0,1,.68,1A4.94,4.94,0,0,1,512.07,368.14Z" style="fill:#455a64"/><path d="M512.07,368.14a17,17,0,0,1-.48-2,23.46,23.46,0,0,0-1.67-4.59,47.53,47.53,0,0,0-3.66-5.89,7,7,0,0,1,1.42,1.49,22.28,22.28,0,0,1,2.64,4.21,18.66,18.66,0,0,1,1.58,4.71A6.42,6.42,0,0,1,512.07,368.14Z" style="fill:#455a64"/><path d="M519.11,451.28l.1-.09.31-.22,1.24-.84,4.72-3.15,16.91-11.15-.06.25-13-24.63L511.77,378v0l-1.57-7.44v0a12,12,0,0,0-4.62-5.94,12.67,12.67,0,0,0-1.78-1l-.48-.21-.16-.09a9.81,9.81,0,0,1,2.5,1.17,12,12,0,0,1,4.78,6h0c.48,2.17,1,4.64,1.64,7.43v-.05c4.61,8.73,10.82,20.47,17.64,33.36,4.75,9,9.19,17.48,13,24.66l.08.15-.15.1-17,11-4.79,3.06-1.26.79-.33.2Z" style="fill:#455a64"/><path d="M530.24,354.42c0,.07-1.24,0-3.21.1a38,38,0,0,0-7.6,1.26,31.63,31.63,0,0,0-7.15,2.84c-1.72,1-2.66,1.77-2.71,1.7a3.49,3.49,0,0,1,.62-.6,8.37,8.37,0,0,1,.81-.62,11.43,11.43,0,0,1,1.12-.75,27.7,27.7,0,0,1,7.19-3,31.8,31.8,0,0,1,7.71-1.14,17.78,17.78,0,0,1,2.36.07A3.37,3.37,0,0,1,530.24,354.42Z" style="fill:#455a64"/><path d="M529.91,349.67a3.63,3.63,0,0,1-.43-.8c-.3-.62-.66-1.37-1.07-2.25a34.87,34.87,0,0,0-4.2-7,15.64,15.64,0,0,0-6.43-4.78,19.19,19.19,0,0,0-3.27-.8,3.29,3.29,0,0,1,.92,0,9.93,9.93,0,0,1,2.46.51,15.17,15.17,0,0,1,6.66,4.8,29.85,29.85,0,0,1,4.14,7.12c.42,1,.74,1.76.94,2.31A3.41,3.41,0,0,1,529.91,349.67Z" style="fill:#455a64"/><path d="M549.91,336.45c0,.09-1.25.16-3.18.68a19.43,19.43,0,0,0-3.29,1.22,21.64,21.64,0,0,0-3.66,2.23,22.58,22.58,0,0,0-3.1,2.95,19.77,19.77,0,0,0-2,2.86c-1,1.74-1.39,2.93-1.48,2.9a3.46,3.46,0,0,1,.24-.85,6.8,6.8,0,0,1,.37-1c.17-.37.34-.8.59-1.24a19,19,0,0,1,2-3,20.8,20.8,0,0,1,3.15-3,21.29,21.29,0,0,1,3.76-2.26,18.78,18.78,0,0,1,3.38-1.15c.49-.13,1-.18,1.35-.25a7.41,7.41,0,0,1,1-.11A3.15,3.15,0,0,1,549.91,336.45Z" style="fill:#455a64"/><path d="M553.7,361.75c-.06.06-.9-.87-2.58-2a31.33,31.33,0,0,0-7.08-3.27,36.62,36.62,0,0,0-7.63-1.71l-1.34-.1h-1a3.31,3.31,0,0,1-.88,0,3.44,3.44,0,0,1,.86-.2l1-.08,1.37,0a31.62,31.62,0,0,1,7.74,1.61,26.93,26.93,0,0,1,7.11,3.43,11,11,0,0,1,1.09.84,6.81,6.81,0,0,1,.76.71C553.52,361.49,553.73,361.73,553.7,361.75Z" style="fill:#455a64"/><path d="M554.36,368.76s-.31-.11-.61-.51a3.68,3.68,0,0,1-.39-3.71c.22-.45.45-.66.49-.63a7.29,7.29,0,0,0-.36,2.49A7.47,7.47,0,0,0,554.36,368.76Z" style="fill:#455a64"/><path d="M553.25,373.57s-.24-.19-.41-.61a3.68,3.68,0,0,1,.44-3.44c.27-.37.52-.53.56-.49a9.8,9.8,0,0,0-.77,2.21A10,10,0,0,0,553.25,373.57Z" style="fill:#455a64"/><path d="M530.91,349.29a60.56,60.56,0,0,1,.12,7.34,58.06,58.06,0,0,1-.32,7.33,63,63,0,0,1-.12-7.34A60.41,60.41,0,0,1,530.91,349.29Z" style="fill:#455a64"/><path d="M543.34,287.86l-12.56-.58-8.21,4.32L521,301.11l6.28-2.2,3.84-2.91,2.67.82s4,2.9,4.52,3.49a2.88,2.88,0,0,0,3,0c.81-.59-3-4.89-3-4.89l-2.66-3.61,4.31,3.38,4,3.65,2.37-1.8-5.7-6.76,3.71,3.43a6,6,0,0,0,6.07,1.23h0Z" style="fill:#9e6d60"/><path d="M522.51,214.32a68.81,68.81,0,0,1-3.17-11.59,24.27,24.27,0,0,1,.8-11.88c.21-.57,2-4.42,2.57-4.36.44,0-.63,3.61-.41,4a20.64,20.64,0,0,1,2.47,12,54.43,54.43,0,0,1-2.26,11.84" style="fill:#263238"/><path d="M533.74,247.73a11.42,11.42,0,0,1-11.33-11.28L521.93,199c-.45-10.05,5-18.69,15.08-18.86l.93,0a18,18,0,0,1,17.23,17.26c.34,8.71.6,18.34.35,23C555,230.1,545.3,231.2,545.3,231.2s0,2.24,0,5.07a11.43,11.43,0,0,1-11.54,11.46Z" style="fill:#9e6d60"/><path d="M545.3,231.2A23.27,23.27,0,0,1,532.9,227s2.77,7.14,12.43,6.67Z" style="fill:#7c4c41"/><path d="M522.42,206.2c-.16-.08-6.55-2.23-6.61,4.37s6.58,5.3,6.59,5.11S522.42,206.2,522.42,206.2Z" style="fill:#9e6d60"/><path d="M520.41,213.16s-.11.08-.31.17a1.19,1.19,0,0,1-.86,0,2.87,2.87,0,0,1-1.29-2.57,3.91,3.91,0,0,1,.33-1.64,1.36,1.36,0,0,1,.88-.88.59.59,0,0,1,.67.32c.09.19,0,.32.08.33s.14-.11.09-.38a.73.73,0,0,0-.25-.42.9.9,0,0,0-.64-.17,1.63,1.63,0,0,0-1.21,1,3.9,3.9,0,0,0-.41,1.84,3,3,0,0,0,1.65,2.87,1.22,1.22,0,0,0,1.05-.17C520.4,213.32,520.43,213.17,520.41,213.16Z" style="fill:#7c4c41"/><path d="M550.9,186.53c1.07-.59-2.13-4.05-4.76-5.25-4-1.8-10-2.91-13.69-1.88-4.4,1.25-8.06,3.44-10.28,7.45a26.07,26.07,0,0,0-2.92,13.26,7.85,7.85,0,0,0,.93,4c.92,1.46,2.69,2.38,2.61,4.39a2.75,2.75,0,0,0,.69,2c1.2,1.29,2.68.08,3.36-1.13,1.45-2.59,1.62-5.67,1.75-8.64a19.38,19.38,0,0,0-.42-6.27c-.32-1.11-.84-2.15-1.1-3.26a4,4,0,0,1,.47-3.3,3.87,3.87,0,0,1,.54-.54,6.88,6.88,0,0,1,6.83-1.3c3.71,1.32,10.06,3.29,11.72,2a10.22,10.22,0,0,0,3-3Z" style="fill:#263238"/><path d="M550.79,205.18a1.38,1.38,0,0,1-1.34,1.4,1.33,1.33,0,0,1-1.43-1.26,1.39,1.39,0,0,1,1.34-1.4A1.32,1.32,0,0,1,550.79,205.18Z" style="fill:#263238"/><path d="M552.48,201.34c-.17.18-1.22-.6-2.72-.6s-2.59.75-2.76.56.1-.41.58-.75a3.84,3.84,0,0,1,2.21-.68,3.62,3.62,0,0,1,2.16.71C552.41,200.93,552.57,201.26,552.48,201.34Z" style="fill:#263238"/><path d="M536.92,205.73a1.38,1.38,0,0,1-1.34,1.4,1.32,1.32,0,0,1-1.43-1.26,1.39,1.39,0,0,1,1.34-1.4A1.33,1.33,0,0,1,536.92,205.73Z" style="fill:#263238"/><path d="M537.75,202.09c-.17.18-1.23-.6-2.72-.6s-2.6.74-2.76.56.09-.41.58-.75a3.8,3.8,0,0,1,4.37,0C537.68,201.68,537.83,202,537.75,202.09Z" style="fill:#263238"/><path d="M543.18,212.7a10.26,10.26,0,0,1,2.43-.43c.38,0,.75-.12.81-.38a2,2,0,0,0-.25-1.13c-.36-.93-.73-1.9-1.13-2.91-1.56-4.15-2.69-7.56-2.52-7.62s1.57,3.25,3.13,7.4c.38,1,.74,2,1.08,2.93a2.2,2.2,0,0,1,.19,1.5.93.93,0,0,1-.63.55,2.3,2.3,0,0,1-.65.09A9.4,9.4,0,0,1,543.18,212.7Z" style="fill:#263238"/><path d="M538.52,197.68c-.14.4-1.64.23-3.39.46s-3.17.72-3.41.36c-.11-.18.14-.56.7-1a6,6,0,0,1,5.19-.63C538.25,197.17,538.58,197.48,538.52,197.68Z" style="fill:#263238"/><path d="M552.51,197.23c-.29.37-1.58.15-3.09.28s-2.77.51-3.1.19c-.14-.16,0-.52.55-.89a5,5,0,0,1,2.45-.81,4.84,4.84,0,0,1,2.53.43C552.42,196.72,552.63,197.05,552.51,197.23Z" style="fill:#263238"/><path d="M544.47,218.19a9,9,0,0,1-3.12-.52,9.77,9.77,0,0,1-3-1,9.06,9.06,0,0,1,3.13.52A9.52,9.52,0,0,1,544.47,218.19Z" style="fill:#263238"/><path d="M520,205.25a43.05,43.05,0,0,1-1.82-9.77,14.63,14.63,0,0,1,2.63-9.4c.82-1.05,1.82-2,2.61-3,1-1.35,1.63-3,2.6-4.32a10.92,10.92,0,0,1,10.48-4.4c2.68.44,5.08,1.88,7.58,3s5.39,1.8,7.9.77a3.33,3.33,0,0,1-1.1,2.92,10.82,10.82,0,0,0,4.77.07c.21,2.51-2.07,4.52-4.34,5.63a20.35,20.35,0,0,1-16.36.57,21.31,21.31,0,0,0-4.77-1.73c-1.68-.24-3.64.31-4.42,1.81" style="fill:#263238"/><path d="M553.44,246.32l-.51-2.1,8.7-9.88s-3.33-10.48-4.35-10.68-2.74,1.71-2.74,1.71a2.29,2.29,0,0,0-2.42,1.41s-2.21.61-2.41,1.62l-.49,0a2.36,2.36,0,0,0-1.87,1.13l-2.28,3.78.8,4s-2.56,3-3.09,5.11,1.21,8.46,1.21,8.46Z" style="fill:#9e6d60"/><path d="M552.88,231.76c-.11.09-.84-.62-1.74-1.49s-1.62-1.58-1.53-1.69,1,.43,1.9,1.32S553,231.67,552.88,231.76Z" style="fill:#7c4c41"/><path d="M556.85,231.55c-.12.06-1-1.14-2.42-2.33a12,12,0,0,1-2.45-2.34,10.62,10.62,0,0,1,2.8,2C556.25,230.05,557,231.48,556.85,231.55Z" style="fill:#7c4c41"/><path d="M559,229.9c-.13,0-.83-1.18-2.15-2.34s-2.45-2.05-2.35-2.18a7.57,7.57,0,0,1,2.71,1.8A4.82,4.82,0,0,1,559,229.9Z" style="fill:#7c4c41"/><path d="M548.28,236.82a4.81,4.81,0,0,1,2.1-1.55l-.12.25a7.48,7.48,0,0,1-.35-2.25l.3.25a2,2,0,0,1-1.57-.31l.36-.37a1.17,1.17,0,0,1,.17.31,1.28,1.28,0,0,1-.43,1.46c-.12.12-.11.12-.08.3a3.66,3.66,0,0,1,.18.6,1.8,1.8,0,0,1-1.21,1.83,3.14,3.14,0,0,1-1.44.15c-.33,0-.51-.09-.51-.12s.19-.06.51-.08a3.76,3.76,0,0,0,1.3-.29,1.44,1.44,0,0,0,.88-1.41,5.23,5.23,0,0,0-.19-.54,1,1,0,0,1,0-.44.79.79,0,0,1,.25-.38.78.78,0,0,0,.28-.9.91.91,0,0,0-.09-.17l-.94-1.26,1.29.88a1.54,1.54,0,0,0,1.17.24l.31-.06v.31a8.55,8.55,0,0,0,.25,2.14l.05.18-.17.07C549.11,236.22,548.34,236.9,548.28,236.82Z" style="fill:#7c4c41"/><path d="M544,250.94a5.28,5.28,0,0,1-.31-1.1c-.16-.71-.38-1.75-.61-3.05-.11-.65-.23-1.37-.34-2.14a12,12,0,0,1-.15-2.54,6.72,6.72,0,0,1,1.18-2.6,17.28,17.28,0,0,1,1.93-2.33l-.07.24c-.08-.38-.16-.78-.24-1.18-.17-.87-.34-1.71-.5-2.54v-.11l.15-.67v0l0,0,1.88-3.06a8,8,0,0,1,.47-.73,2.13,2.13,0,0,1,.7-.54,2.33,2.33,0,0,1,1.61-.14l-.23.12a3,3,0,0,1,2.63-1.86l-.14.13a1.83,1.83,0,0,1,1.46-1.34,1.49,1.49,0,0,1,.71-.05,6.1,6.1,0,0,1-.66.19,1.73,1.73,0,0,0-1.22,1.23l0,.13h-.11a2.77,2.77,0,0,0-2.28,1.73l-.07.15-.16,0a1.92,1.92,0,0,0-1.31.14,1.67,1.67,0,0,0-.55.44c-.13.16-.27.45-.42.68l-1.84,3.08,0-.07-.15.67v-.11c.17.82.34,1.67.51,2.54.08.4.16.8.24,1.18l0,.13-.1.1a17.76,17.76,0,0,0-1.89,2.25,6.55,6.55,0,0,0-1.13,2.38,12.13,12.13,0,0,0,.11,2.42c.09.76.19,1.47.27,2.13l.45,3.08A5.25,5.25,0,0,1,544,250.94Z" style="fill:#7c4c41"/></g><g id="freepik--character-1--inject-2"><polygon points="85.62 363.68 97 466.44 112.59 466.44 112.17 358.39 85.62 363.68" style="fill:#c69481"/><path d="M144.3,363s1.07,7-.63,11-35.56,65.33-35.56,65.33l-10-22.58,22.21-52Z" style="fill:#c69481"/><path d="M112.5,376.15c.14,0,.26,19.81.26,44.24s-.12,44.24-.26,44.24-.26-19.8-.26-44.24S112.35,376.15,112.5,376.15Z" style="fill:#936457"/><path d="M96,265.34s-11.55,12.35-13.62,19.54-8.65,79.31-8.65,79.31,16.86.72,22.35,3.68,19.87,7.83,28.12,6.56S146.7,370,146.7,370s.75-62.41,0-70.24-5.76-30-5.76-30Z" style="fill:#263238"/><path d="M102.83,265.27a.8.8,0,0,1-.06.25l-.22.74-.92,2.81c-.4,1.21-.9,2.7-1.42,4.45s-1.18,3.71-1.8,5.92-1.33,4.61-2,7.22S95,292.06,94.32,295c-1.36,5.9-2.69,12.43-3.83,19.33S88.59,327.86,88,333.9c-.25,3-.51,5.88-.66,8.57s-.29,5.2-.37,7.49-.13,4.36-.17,6.19-.06,3.38,0,4.67l0,2.95,0,.77a.9.9,0,0,1,0,.26.9.9,0,0,1,0-.26l0-.77-.08-2.95c0-1.29-.06-2.85,0-4.68s0-3.9.09-6.19.14-4.81.31-7.5.37-5.57.61-8.6c.56-6,1.34-12.67,2.45-19.59s2.49-13.46,3.87-19.36c.73-2.95,1.4-5.76,2.14-8.35s1.41-5,2.07-7.22,1.31-4.17,1.87-5.9,1.07-3.22,1.51-4.43.77-2.1,1-2.78l.27-.71Z" style="fill:#455a64"/><path d="M105.45,371.19a.9.9,0,0,1,0-.26c0-.21,0-.47,0-.79,0-.73,0-1.74,0-3,0-2.62.09-6.42.23-11.12.28-9.39.9-22.35,2.08-36.64s2.71-27.19,4-36.49c.64-4.66,1.19-8.42,1.61-11,.21-1.26.37-2.26.49-3l.14-.78a.76.76,0,0,1,.07-.26s0,.09,0,.27l-.09.78q-.14,1.1-.39,3c-.34,2.64-.84,6.4-1.44,11-1.18,9.31-2.64,22.2-3.83,36.48S106.39,346.62,106,356c-.17,4.66-.3,8.44-.39,11.11,0,1.28-.08,2.29-.11,3,0,.32,0,.58,0,.79A.9.9,0,0,1,105.45,371.19Z" style="fill:#455a64"/><path d="M128.76,268.3c.14,0,.13,23.38,0,52.21s-.4,52.21-.55,52.21-.13-23.37,0-52.21S128.61,268.3,128.76,268.3Z" style="fill:#455a64"/><path d="M143.43,281.28a3.16,3.16,0,0,1-.56,0l-1.61,0c-1.39,0-3.4,0-5.89-.07-5-.14-11.85-.53-19.4-1.44s-14.31-2.2-19.17-3.27c-2.43-.53-4.39-1-5.74-1.34l-1.55-.41a2,2,0,0,1-.53-.18,2.29,2.29,0,0,1,.55.07l1.57.32,5.77,1.18c4.88,1,11.64,2.19,19.17,3.11s14.38,1.36,19.34,1.59l5.89.24,1.6.07A2.37,2.37,0,0,1,143.43,281.28Z" style="fill:#455a64"/><path d="M146.54,302.53a3.29,3.29,0,0,1-.66.1l-1.91.17c-1.65.15-4.05.29-7,.38s-6.51.11-10.44,0-8.24-.41-12.75-.89-8.78-1.15-12.64-1.86-7.32-1.48-10.2-2.22-5.19-1.38-6.78-1.88l-1.82-.57a3.11,3.11,0,0,1-.63-.24,2.91,2.91,0,0,1,.66.14l1.85.48c1.6.44,3.92,1,6.81,1.71s6.34,1.41,10.19,2.11,8.12,1.31,12.62,1.81,8.8.77,12.71.93,7.45.18,10.41.13,5.36-.13,7-.22l1.91-.08A3.23,3.23,0,0,1,146.54,302.53Z" style="fill:#455a64"/><path d="M145.63,325.22c0,.15-15-1.08-33.48-2.74s-33.46-3.12-33.44-3.26,15,1.08,33.48,2.74S145.65,325.08,145.63,325.22Z" style="fill:#455a64"/><path d="M144.63,346.7a3.56,3.56,0,0,1-.68.05l-2,.05c-1.7,0-4.16,0-7.21,0-6.08-.07-14.49-.38-23.75-1.11S93.42,343.93,87.39,343c-3-.45-5.44-.84-7.11-1.14l-1.93-.36a4.32,4.32,0,0,1-.67-.15,3.24,3.24,0,0,1,.69.05l1.94.26,7.13,1c6,.8,14.38,1.77,23.63,2.5s17.64,1.09,23.72,1.26l7.2.16,2,.06A2.74,2.74,0,0,1,144.63,346.7Z" style="fill:#455a64"/><path d="M146.94,365.58a5.57,5.57,0,0,1-.73.13l-2.1.29c-.91.13-2,.27-3.33.38s-2.78.28-4.42.37c-3.29.23-7.21.34-11.56.3s-9.14-.33-14.13-.86-9.73-1.35-14-2.21-8.07-1.86-11.22-2.8c-1.59-.43-3-.92-4.24-1.31s-2.31-.77-3.17-1.09l-2-.74a3.28,3.28,0,0,1-.68-.29,4.35,4.35,0,0,1,.71.2l2,.64c.87.29,1.94.64,3.19,1s2.67.83,4.26,1.24c3.16.89,7,1.81,11.21,2.68s9,1.6,14,2.16,9.75.8,14.09.9,8.25,0,11.52-.19c1.65-.06,3.12-.2,4.43-.29s2.42-.19,3.33-.29l2.11-.19A3.45,3.45,0,0,1,146.94,365.58Z" style="fill:#455a64"/><path d="M123.69,140.57A19.48,19.48,0,0,0,96,151.39c-1.79,5.23-1.28,10.94-2.12,16.4-2.51,16.22-16.63,29-18.58,45.26a32.52,32.52,0,0,0,16.19,31.54c1.78,1,4.16,1.72,5.69.39,1.34-1.16,1.23-3.2,1.56-4.94.91-4.72,5.67-7.84,10.41-8.68s9.57.06,14.36.38,10-.08,13.76-3c4.18-3.25,5.75-9,5.47-14.27s-2.09-10.36-3.49-15.47A84.1,84.1,0,0,1,136,173.84c.15-4.63.76-9.25.61-13.88s-1.1-9.37-3.75-13.16S125.62,140.36,121,141" style="fill:#263238"/><path d="M101.45,152l-.16-3.19,19.07-4.25c5.89-.81,12.47,4.92,13,10.85.62,6.58,1.12,14.64.49,19.58-1.26,9.94-8.81,11.44-8.81,11.44l-.44,17.88-13.86.6a7.86,7.86,0,0,1-8.21-7.66Z" style="fill:#c69481"/><path d="M130.19,164A1.26,1.26,0,0,1,129,165.3a1.21,1.21,0,0,1-1.34-1.11,1.25,1.25,0,0,1,1.18-1.31A1.2,1.2,0,0,1,130.19,164Z" style="fill:#263238"/><path d="M131.32,159.88c-.13.13-1.14.05-2.44.46s-2.17,1.07-2.33,1,0-.22.41-.52a5.66,5.66,0,0,1,1.84-.93,5,5,0,0,1,2-.26C131.21,159.7,131.38,159.82,131.32,159.88Z" style="fill:#263238"/><path d="M116.94,164.24a1.27,1.27,0,0,1-1.18,1.31,1.22,1.22,0,0,1-1.35-1.1,1.28,1.28,0,0,1,1.19-1.32A1.22,1.22,0,0,1,116.94,164.24Z" style="fill:#263238"/><path d="M117.77,161.78c-.19,0-1-.6-2.28-1s-2.39-.34-2.5-.47.15-.16.63-.2a6,6,0,0,1,2,.27,5.3,5.3,0,0,1,1.77.9C117.77,161.58,117.85,161.77,117.77,161.78Z" style="fill:#263238"/><path d="M123.29,170a8.83,8.83,0,0,1,2.2-.47c.35-.05.68-.13.73-.36a1.84,1.84,0,0,0-.27-1c-.35-.83-.72-1.71-1.11-2.62a45.72,45.72,0,0,1-2.53-6.88,46,46,0,0,1,3.08,6.66l1.07,2.64a2,2,0,0,1,.22,1.36.91.91,0,0,1-.56.53,2.8,2.8,0,0,1-.59.1A9,9,0,0,1,123.29,170Z" style="fill:#263238"/><path d="M125.07,186.14a26.25,26.25,0,0,1-13.7-3.14s3.36,6.85,13.57,5.63Z" style="fill:#936457"/><path d="M122.81,173.31a2.44,2.44,0,0,0-2.23-.85,2.31,2.31,0,0,0-1.53.88A1.43,1.43,0,0,0,119,175a1.65,1.65,0,0,0,1.81.4,5.19,5.19,0,0,0,1.71-1.09,1.88,1.88,0,0,0,.38-.42.47.47,0,0,0,0-.51" style="fill:#936457"/><path d="M119.3,171.07c.22,0,.27,1.46,1.57,2.47s2.87.8,2.89,1-.34.3-1,.34a3.72,3.72,0,0,1-2.41-.76,3.22,3.22,0,0,1-1.22-2.08C119,171.44,119.19,171.06,119.3,171.07Z" style="fill:#263238"/><path d="M118.2,155.2c-.12.37-1.49.24-3.09.48s-2.87.72-3.1.4c-.1-.16.12-.52.63-.89a5.18,5.18,0,0,1,2.28-.88,5.1,5.1,0,0,1,2.43.21C118,154.74,118.25,155,118.2,155.2Z" style="fill:#263238"/><path d="M131.24,153.93c-.23.32-1.18,0-2.31,0s-2.08.28-2.31,0c-.1-.15,0-.47.45-.78a3.37,3.37,0,0,1,3.72,0C131.2,153.46,131.34,153.78,131.24,153.93Z" style="fill:#263238"/><path d="M103.25,143.2c4.06-3.7,10.67-4.19,14.48-4.32,8.3-3.72,16.14,1.26,17.41,5.29,2.24,7.1.55,16.43-1.17,18.42-1.08-4.4-4.78-16.57-12.43-18.42h0c-.93,2.69-3.51,7.13-8.21,12.82a37.33,37.33,0,0,1-11.71,9.44S95.92,149.89,103.25,143.2Z" style="fill:#263238"/><path d="M103.25,165.4c-.16-.08-6.53-2.23-6.59,4.36s6.56,5.28,6.58,5.1S103.25,165.4,103.25,165.4Z" style="fill:#c69481"/><path d="M101.25,172.34s-.12.08-.31.17a1.19,1.19,0,0,1-.86,0A2.84,2.84,0,0,1,98.79,170a3.76,3.76,0,0,1,.34-1.64,1.31,1.31,0,0,1,.87-.87.57.57,0,0,1,.67.32c.09.18,0,.31.08.32s.14-.1.09-.38a.71.71,0,0,0-.25-.41.89.89,0,0,0-.63-.18,1.63,1.63,0,0,0-1.21,1,3.9,3.9,0,0,0-.42,1.84,3,3,0,0,0,1.65,2.86,1.22,1.22,0,0,0,1-.17C101.24,172.5,101.27,172.35,101.25,172.34Z" style="fill:#936457"/><path d="M99.32,188.17a2,2,0,0,0,.05-.5,11.45,11.45,0,0,0-.05-1.45A26.39,26.39,0,0,0,98.21,181a59,59,0,0,1-2-7.56,13.88,13.88,0,0,1,0-4.55,9,9,0,0,1,1.95-4.38,17.9,17.9,0,0,1,3.91-3,25,25,0,0,0,3.63-3,32.57,32.57,0,0,0,4.86-6.23,44.68,44.68,0,0,0,2.48-4.71c.26-.57.44-1,.56-1.33a1.62,1.62,0,0,0,.16-.48s-.33.61-.9,1.73-1.42,2.71-2.61,4.6a33.21,33.21,0,0,1-4.89,6.08,24.07,24.07,0,0,1-3.57,2.89,17.8,17.8,0,0,0-4,3.05,9.32,9.32,0,0,0-2.06,4.62,14.27,14.27,0,0,0,0,4.71,54.34,54.34,0,0,0,2.17,7.6,29.92,29.92,0,0,1,1.26,5.12C99.29,187.48,99.27,188.17,99.32,188.17Z" style="fill:#455a64"/><path d="M98.33,164.43a8.87,8.87,0,0,0,1.49-1.88A27.58,27.58,0,0,0,104,151.83a8.44,8.44,0,0,0,.18-2.39,65.75,65.75,0,0,1-2.18,7.78A64.4,64.4,0,0,1,98.33,164.43Z" style="fill:#455a64"/><path d="M142.84,221.39l-7.13-25.52-11-1.37-24.07,1.82-15,7.92,6.43,24s3.41,31.6,2.68,36.72c-.06.45,1.71,1.61,2,1.92l43.89,2.88s1.55-14.11,2-20.59S142.84,221.39,142.84,221.39Z" style="fill:#808ef5"/><path d="M85.62,204.24s-4.81,3.32-7.78,18.58c-3.4,17.49-.12,40.89-.12,40.89l13.54-5.09,6.67-27.51Z" style="fill:#808ef5"/><path d="M134.86,195.77s10.3,0,14.41,11.56c4.06,11.41,6.18,39.24,6.18,39.24l-11.82,1.87Z" style="fill:#808ef5"/><g style="opacity:.30000000000000004"><path d="M142.56,250.77c-.59-1.92-3.22-1.27-5.21-1-8.13,1.07-14,8.33-21.55,11.44-5.47,2.24-11.79,2.3-16.79,5.46h0c6.84-.34,14.77.28,21.62.38,2.18,0,4.49.08,6.39-1,3.15-1.8,4.15-6.1,7.27-8,1.62-1,3.6-1.12,5.34-1.86S143.11,252.58,142.56,250.77Z"/></g><path d="M156,245.81a9.24,9.24,0,0,0-5.08-4c-3.46-1-20.65-4.73-20.65-4.73h-6.46l-5.7,4,3.33,5.37,14.82-.73a105.4,105.4,0,0,0,7.57,8.36c3.41,3.21,6.2,4.62,8.13,3.85a15.79,15.79,0,0,0,2.42-1.27,8,8,0,0,0,3.6-5.93A7.71,7.71,0,0,0,156,245.81Z" style="fill:#c69481"/><path d="M93.5,239.59l-1.45,8.46,31,1.58v-5.45a13.8,13.8,0,0,0-8.23-3.5C110.08,240.55,93.5,239.59,93.5,239.59Z" style="fill:#e0e0e0"/><polygon points="90.21 247.57 92.05 256.6 121.83 259.15 123.01 249.63 90.21 247.57" style="fill:#455a64"/><polygon points="126.94 245.24 123.01 249.16 121.83 259.15 126.94 254.35 151.86 246.47 154.4 235.55 126.94 245.24" style="fill:#455a64"/><polygon points="151.17 233.32 123.01 244.18 123.01 249.16 126.94 245.24 154.4 235.55 151.17 233.32" style="fill:#e0e0e0"/><path d="M91.37,257.15a9.2,9.2,0,0,0-8,0,13.49,13.49,0,0,0-5.69,6.56s1.67,8.94,8.53,7.15,26.68-7.2,26.68-7.2l6.93-1a5.82,5.82,0,0,0,3.37-1.71l10.34-10.31s-.72-2-1.76-.41l.75-1.37s-1.77-1.52-4.08,1l-1.41,1.52,1.12-2.5s-2.35-.92-4.44,2.51l-3.24,3.38-5.93,1.47s-3.6-.26-5.09-1.45-5.64-4.47-9.07-2.38l4.34,5-2.26,1Z" style="fill:#c69481"/><path d="M93.39,221.16a76.46,76.46,0,0,1,.15,8.84,74.75,74.75,0,0,1-.36,8.84A75,75,0,0,1,93,230,73.7,73.7,0,0,1,93.39,221.16Z" style="fill:#263238"/><path d="M142,237.12c-.09,0,.29-1.34.6-3.51a31.63,31.63,0,0,0,0-8.53,31.25,31.25,0,0,0-2.32-8.2c-.89-2-1.61-3.17-1.53-3.22a3.11,3.11,0,0,1,.58.77,20.11,20.11,0,0,1,1.28,2.29,27.81,27.81,0,0,1,2.33,16.94,18.9,18.9,0,0,1-.62,2.56A3.82,3.82,0,0,1,142,237.12Z" style="fill:#263238"/><path d="M113.13,463.87h0s18.14,6.38,18.4,9.71l-34.84.59-.2-9.12,1.28.28A25.9,25.9,0,0,0,113.13,463.87Z" style="fill:#808ef5"/><g style="opacity:.6000000000000001"><path d="M100.54,466.69a1.42,1.42,0,0,0-1,1.64,1.38,1.38,0,0,0,1.62,1,1.51,1.51,0,0,0,1-1.75,1.42,1.42,0,0,0-1.8-.81" style="fill:#fff"/></g><g style="opacity:.6000000000000001"><path d="M96.69,474.17l0-2.83,33.39.49s1.56.65,1.4,1.75Z" style="fill:#fff"/></g><path d="M113.69,463.69c0,.17-.85.26-1.68.82s-1.26,1.28-1.42,1.22.08-1.05,1.1-1.72S113.73,463.53,113.69,463.69Z" style="fill:#263238"/><path d="M117.37,465.14c0,.16-.69.46-1.25,1.19s-.72,1.49-.89,1.49-.3-1,.43-1.86S117.37,465,117.37,465.14Z" style="fill:#263238"/><path d="M119.52,469.47c-.15,0-.4-.8,0-1.74s1.21-1.33,1.29-1.18-.41.64-.75,1.42S119.69,469.45,119.52,469.47Z" style="fill:#263238"/><path d="M113.31,463.59a3.19,3.19,0,0,1-1.74,0,7.36,7.36,0,0,1-1.84-.53,8.7,8.7,0,0,1-1-.51,2.17,2.17,0,0,1-.53-.4.76.76,0,0,1-.1-.91,1,1,0,0,1,.74-.4,2.54,2.54,0,0,1,.66.08,5.81,5.81,0,0,1,1.09.36,6.25,6.25,0,0,1,1.63,1c.82.74,1.11,1.37,1.05,1.4s-.48-.46-1.31-1.07a7.18,7.18,0,0,0-1.57-.85,6.54,6.54,0,0,0-1-.29c-.37-.09-.69-.09-.78.08s0,.09,0,.19a1.73,1.73,0,0,0,.4.3q.47.29.93.51a9.49,9.49,0,0,0,1.69.61A13.26,13.26,0,0,1,113.31,463.59Z" style="fill:#263238"/><path d="M113.1,463.84a2.77,2.77,0,0,1-.49-1.68,5.55,5.55,0,0,1,.63-3,1.45,1.45,0,0,1,1.1-.9.81.81,0,0,1,.73.48,2.13,2.13,0,0,1,.19.63,3.62,3.62,0,0,1,0,1.18,4,4,0,0,1-.72,1.81c-.66.92-1.37,1.13-1.39,1.08s.53-.43,1-1.3a4,4,0,0,0,.52-1.65,3.45,3.45,0,0,0,0-1c-.06-.37-.2-.67-.34-.63s-.46.29-.6.59a6.11,6.11,0,0,0-.42,1,6.3,6.3,0,0,0-.3,1.75C113,463.18,113.19,463.81,113.1,463.84Z" style="fill:#263238"/></g><g id="freepik--Desk--inject-2"><path d="M656.36,239.83a2.21,2.21,0,1,1,4.37.66L651,299.64h-4.43Z" style="fill:#263238"/><path d="M659.81,240.56l-39.95-43.89-.29.48-1.94,3.21,38.9,43.17a2.21,2.21,0,1,0,3.28-3Z" style="fill:#263238"/><path d="M656.88,241.7s-.07-.1-.06-.28a1.08,1.08,0,0,1,.37-.68,1.2,1.2,0,0,1,1.16-.22,1.25,1.25,0,0,1,.84,1.18,1.23,1.23,0,0,1-.84,1.17,1.17,1.17,0,0,1-1.16-.22,1.06,1.06,0,0,1-.37-.68c0-.18,0-.27.06-.27s.07.41.5.7a.91.91,0,0,0,.83.08.85.85,0,0,0,.53-.78.86.86,0,0,0-.53-.79.91.91,0,0,0-.83.08C657,241.29,657,241.71,656.88,241.7Z" style="fill:#455a64"/><path d="M657.49,238a6.12,6.12,0,0,1,1.2,1.1,17,17,0,0,1,1.2,1.32,2.8,2.8,0,0,1,.63,2.18,2.23,2.23,0,0,1-1.63,1.6,2.35,2.35,0,0,1-1.83-.26c-.9-.56-1.22-1.13-1.19-1.16s.48.44,1.33.88a2.1,2.1,0,0,0,1.58.14,1.84,1.84,0,0,0,1.3-1.29,2.49,2.49,0,0,0-.53-1.85c-.37-.52-.78-1-1.1-1.35A5.58,5.58,0,0,1,657.49,238Z" style="fill:#455a64"/><path d="M629.08,304.86h36.37s-4.64-5.79-16.75-5.79C637.42,299.07,630.7,302.39,629.08,304.86Z" style="fill:#263238"/><polygon points="620.09 189.72 621.94 186.94 619.66 185.19 617.69 187.98 620.09 189.72" style="fill:#263238"/><path d="M623.22,191.39l-8-5.77-7.64,9.19C594.36,197,589,205.28,589,205.28l23.73,18.17c8.12-9,4.27-21.8,4.27-21.8Z" style="fill:#808ef5"/><path d="M617,201.65a37.34,37.34,0,0,1-4.84-3.24,38.08,38.08,0,0,1-4.57-3.6,37.67,37.67,0,0,1,4.83,3.24A38.74,38.74,0,0,1,617,201.65Z" style="fill:#263238"/><rect width="284.47" height="12.44" x="410.99" y="305.29" style="fill:#455a64"/><path d="M471.26,305.48l-.09.13c-.07.08-.16.21-.3.37a5.9,5.9,0,0,1-1.43,1.15,7.91,7.91,0,0,1-2.75.92,19.35,19.35,0,0,1-3.83.17,39.25,39.25,0,0,1-4.62-.53,41.47,41.47,0,0,0-5.25-.63,32.71,32.71,0,0,0-11.83,2.29c-4.06,1.46-7.85,3.11-11.48,4.11a31,31,0,0,1-5.23,1,22.51,22.51,0,0,1-4.65,0,15.73,15.73,0,0,1-6.38-2,10.09,10.09,0,0,1-2-1.48l.14.09.38.28a12.52,12.52,0,0,0,1.53,1,16.09,16.09,0,0,0,6.33,1.91,22.18,22.18,0,0,0,4.6,0,31.7,31.7,0,0,0,5.17-1.06c3.6-1,7.38-2.67,11.46-4.13A32.68,32.68,0,0,1,453,306.74a39.59,39.59,0,0,1,5.29.66,37.36,37.36,0,0,0,4.58.57,19.23,19.23,0,0,0,3.79-.11,8,8,0,0,0,2.71-.85A7.43,7.43,0,0,0,471.26,305.48Z" style="fill:#263238"/><path d="M440.14,305.66a7.39,7.39,0,0,1-.86.74,21.08,21.08,0,0,1-2.6,1.67,21.87,21.87,0,0,1-9.79,2.59,21.13,21.13,0,0,1-9.91-2,6.34,6.34,0,0,1-2.4-2,3.39,3.39,0,0,1-.39-.75.87.87,0,0,1-.07-.28,10.23,10.23,0,0,0,.57.95,6.57,6.57,0,0,0,2.4,1.82,22.06,22.06,0,0,0,9.79,1.91,23.51,23.51,0,0,0,5.47-.82,23.06,23.06,0,0,0,6.85-3.2A8.33,8.33,0,0,1,440.14,305.66Z" style="fill:#263238"/><path d="M506.89,313.55l.44.16a9.18,9.18,0,0,0,1.31.35,7.76,7.76,0,0,0,5-.78v.16a11.81,11.81,0,0,0-6.18-2.41,12,12,0,0,0-8,2.09,1.24,1.24,0,0,0-.63.81.89.89,0,0,0,.54.8,3.58,3.58,0,0,0,1.1.38l1.21.28c1.63.36,3.31.72,5.05,1a30.68,30.68,0,0,0,5.37.36,19.82,19.82,0,0,0,2.76-.26c.46-.08.92-.17,1.37-.29a6.88,6.88,0,0,0,1.33-.43,4.35,4.35,0,0,0,1.72-1.25,1.93,1.93,0,0,0,.33-1.91,3.23,3.23,0,0,0-1.35-1.51,10.66,10.66,0,0,0-1.89-.92,25.81,25.81,0,0,0-7.9-1.64,32.85,32.85,0,0,0-13.49,2.09,33.25,33.25,0,0,0-8.12,4.44c-.86.67-1.53,1.2-2,1.59l-.5.42c-.11.1-.17.15-.18.14l.16-.16.48-.45c.41-.41,1.06-1,1.92-1.65a32.91,32.91,0,0,1,21.71-6.74,26.06,26.06,0,0,1,8,1.64,11.69,11.69,0,0,1,1.95,1,3.6,3.6,0,0,1,1.49,1.68,2.32,2.32,0,0,1-.38,2.25,4.77,4.77,0,0,1-1.86,1.35,7.17,7.17,0,0,1-1.38.45c-.47.12-.94.21-1.4.29a19.22,19.22,0,0,1-2.81.27,30.27,30.27,0,0,1-5.43-.38c-1.75-.26-3.44-.63-5.07-1l-1.21-.28a4.05,4.05,0,0,1-1.19-.43,1.5,1.5,0,0,1-.5-.44,1,1,0,0,1-.19-.67,1.61,1.61,0,0,1,.76-1,12.19,12.19,0,0,1,8.23-2.09,11.88,11.88,0,0,1,6.27,2.51l.11.09-.13.07a7.78,7.78,0,0,1-5.09.71A5.83,5.83,0,0,1,506.89,313.55Z" style="fill:#263238"/><path d="M543.5,305.8a2,2,0,0,1,.28.62,4.94,4.94,0,0,1,.18,1.87,9.15,9.15,0,0,1-2.77,5.43,14.31,14.31,0,0,1-2.58,2.2,11.31,11.31,0,0,1-2.5,1.21,11.93,11.93,0,0,1-1.81.46,2.07,2.07,0,0,1-.68.05c0-.06,1-.2,2.4-.74a12.14,12.14,0,0,0,2.41-1.25,14.91,14.91,0,0,0,2.51-2.17,9.45,9.45,0,0,0,2.78-5.21A7,7,0,0,0,543.5,305.8Z" style="fill:#263238"/><path d="M594.58,317.08a14.33,14.33,0,0,0-1.31-1.27,9.24,9.24,0,0,0-4.44-2,9.78,9.78,0,0,0-3.39.1,14.43,14.43,0,0,1-4,.36,7.89,7.89,0,0,1-4-1.93,13.49,13.49,0,0,0-4-2.36,14.62,14.62,0,0,0-8.82-.14,21.05,21.05,0,0,0-6.52,3.31,35,35,0,0,0-3.79,3.23l-1,.95a2,2,0,0,1-.35.32,2.19,2.19,0,0,1,.3-.37c.2-.23.51-.57.92-1a31.64,31.64,0,0,1,3.73-3.33,20.72,20.72,0,0,1,6.58-3.42,14.84,14.84,0,0,1,9,.12,13.69,13.69,0,0,1,4.06,2.41,7.65,7.65,0,0,0,3.79,1.89,14.11,14.11,0,0,0,3.88-.33,10,10,0,0,1,3.48-.05,9,9,0,0,1,4.49,2.14A6.1,6.1,0,0,1,594.58,317.08Z" style="fill:#263238"/><path d="M640.19,305.41a3.46,3.46,0,0,1-.31.43c-.22.26-.51.68-1,1.15a26.38,26.38,0,0,1-4.16,3.69,33.56,33.56,0,0,1-7.2,4,29.78,29.78,0,0,1-4.65,1.48,24.33,24.33,0,0,1-5.19.67,25.73,25.73,0,0,1-9.87-2.06,32.55,32.55,0,0,1-7.16-4.06,27.82,27.82,0,0,1-4.13-3.72c-.45-.47-.75-.89-1-1.16a2.24,2.24,0,0,1-.31-.42,2.65,2.65,0,0,1,.36.38c.24.25.55.65,1,1.11a30.85,30.85,0,0,0,4.17,3.61,33.93,33.93,0,0,0,7.14,4,25.82,25.82,0,0,0,9.74,2,23.85,23.85,0,0,0,5.13-.66,29.81,29.81,0,0,0,4.6-1.44,34.12,34.12,0,0,0,7.18-3.9,29.07,29.07,0,0,0,4.2-3.58c.47-.45.78-.86,1-1.11A2.33,2.33,0,0,1,640.19,305.41Z" style="fill:#263238"/><path d="M633.67,305.29s-.07.08-.24.2l-.73.5a31.54,31.54,0,0,1-2.85,1.61,29.19,29.19,0,0,1-4.51,1.83,19.85,19.85,0,0,1-5.87,1A24.16,24.16,0,0,1,609,307.8a21.51,21.51,0,0,1-2.82-1.66c-.33-.21-.56-.4-.72-.52l-.24-.21a8.59,8.59,0,0,1,1,.62,28.17,28.17,0,0,0,2.86,1.55,25.19,25.19,0,0,0,10.32,2.51,20.5,20.5,0,0,0,5.78-1,33.06,33.06,0,0,0,4.49-1.74c1.24-.59,2.22-1.12,2.88-1.51A11.88,11.88,0,0,1,633.67,305.29Z" style="fill:#263238"/><path d="M662.6,306.57h-.33l-.93-.06-.67-.05h-.8c-.58,0-1.23,0-2,0l-1.14.06-1.22.15c-.84.07-1.73.27-2.67.43a40.2,40.2,0,0,0-5.95,1.77,42.51,42.51,0,0,0-5.57,2.74c-.8.52-1.59,1-2.27,1.49l-1,.72c-.31.25-.6.49-.89.71-.57.44-1,.9-1.47,1.28l-.59.54-.47.48-.66.67c-.15.14-.24.22-.25.21s.06-.1.2-.26l.61-.71.45-.51.58-.56c.41-.4.88-.87,1.45-1.33l.87-.73,1-.74c.68-.53,1.47-1,2.27-1.53a39.1,39.1,0,0,1,5.61-2.79,37.79,37.79,0,0,1,6-1.77c1-.15,1.85-.34,2.71-.4l1.23-.12,1.15,0a15.7,15.7,0,0,1,2,0l.81,0,.67.08.93.13C662.49,306.53,662.6,306.55,662.6,306.57Z" style="fill:#263238"/><path d="M599.69,316.83a13.11,13.11,0,0,0-1.56-1.86,14.61,14.61,0,0,0-5.74-3.21,30.3,30.3,0,0,0-4.47-1c-1.63-.26-3.39-.47-5.23-.78a45.41,45.41,0,0,1-5.68-1.43,36.72,36.72,0,0,0-6.06-1.46,25.19,25.19,0,0,0-11.8,1.63,42.12,42.12,0,0,0-4.81,2.15c-1.47.76-2.82,1.5-4,2.19-2.45,1.39-4.4,2.57-5.74,3.39l-1.55.95-.4.24c-.09,0-.14.08-.15.07l.13-.1.38-.27c.35-.24.85-.58,1.52-1,1.32-.85,3.25-2.07,5.69-3.48,1.21-.71,2.56-1.47,4-2.23a41.52,41.52,0,0,1,4.82-2.2,25.3,25.3,0,0,1,12-1.68,37.49,37.49,0,0,1,6.12,1.48,44.1,44.1,0,0,0,5.64,1.44c1.82.32,3.58.54,5.22.81a31.09,31.09,0,0,1,4.5,1,14.25,14.25,0,0,1,5.75,3.34A7.11,7.11,0,0,1,599.69,316.83Z" style="fill:#263238"/><path d="M535.62,305.48a3.36,3.36,0,0,1,0,.79,9.49,9.49,0,0,1-.55,2.1,12.07,12.07,0,0,1-4.37,5.59,29.47,29.47,0,0,1-6.48,3c-.87.29-1.58.49-2.07.62a3.37,3.37,0,0,1-.78.16,4.14,4.14,0,0,1,.74-.29l2-.73a33,33,0,0,0,6.37-3,12.47,12.47,0,0,0,4.34-5.39A18.11,18.11,0,0,0,535.62,305.48Z" style="fill:#263238"/><path d="M469.58,317.73a4.67,4.67,0,0,1,.69-.66c.46-.42,1.15-1,2-1.66a59.2,59.2,0,0,1,7.25-4.68c3-1.62,5.72-2.92,7.72-3.84l2.39-1.07a4.18,4.18,0,0,1,.89-.34,6.47,6.47,0,0,1-.83.47l-2.34,1.16c-2,1-4.72,2.31-7.66,3.93a70.58,70.58,0,0,0-7.28,4.57c-.89.64-1.6,1.18-2.08,1.56A5.23,5.23,0,0,1,469.58,317.73Z" style="fill:#263238"/><path d="M483,306s-.66-.08-1.84,0a12.93,12.93,0,0,0-4.74,1.44,44.31,44.31,0,0,0-6.17,4.14,31.21,31.21,0,0,1-3.71,2.41,21.06,21.06,0,0,1-4.44,1.7,41.08,41.08,0,0,1-9.09,1.1c-2.81.08-5.34,0-7.45.11a35.44,35.44,0,0,0-5,.49c-.58.11-1,.19-1.34.27a2.91,2.91,0,0,1-.47.08l.46-.15c.29-.1.74-.21,1.32-.34a32.92,32.92,0,0,1,5-.6c2.12-.12,4.65-.09,7.45-.19a41.94,41.94,0,0,0,9-1.1,21,21,0,0,0,4.37-1.68,31,31,0,0,0,3.68-2.36,41.91,41.91,0,0,1,6.25-4.1,12.65,12.65,0,0,1,4.85-1.36,8.74,8.74,0,0,1,1.37,0A2.58,2.58,0,0,1,483,306Z" style="fill:#263238"/><path d="M660.4,305.24c0,.1-11.89.18-26.55.18s-26.56-.08-26.56-.18,11.89-.17,26.56-.17S660.4,305.15,660.4,305.24Z" style="fill:#263238"/><polygon points="419.38 474.17 415.33 474.17 415.33 316.77 423.98 316.77 419.38 474.17" style="fill:#455a64"/><polygon points="684.32 474.17 680.28 474.17 680.28 317.2 688.93 317.2 684.32 474.17" style="fill:#455a64"/><rect width="36.07" height="12.44" x="659.4" y="305.29" style="fill:#263238"/><path d="M562.43,291.37s-21.63.64-27.2,12.44l36.55-1.26-3.41-6.15-17,1.86,14.23-3.2Z" style="fill:#e0e0e0"/><path d="M508.83,290c-.5,0-4.1,5.29-4.1,5.29s13.31,1.17,19.72,5.15c0,0-10.34-4.1-20.3-1.64l-1.76,4,32.84,1S524.89,290.7,508.83,290Z" style="fill:#e0e0e0"/><rect width="69.84" height="1.98" x="500.68" y="303.3" style="fill:#263238"/></g></svg>